<svg width="80" height="81" viewBox="0 0 80 81" fill="none" xmlns="http://www.w3.org/2000/svg">
<g clip-path="url(#clip0)">
<path d="M40 0.688354C17.9084 0.688354 0 18.538 0 40.557C0 62.5761 17.9084 80.4257 40 80.4257C62.0916 80.4257 80 62.5761 80 40.557C79.9752 18.5487 62.0808 0.713045 40 0.688354ZM40 77.768C19.3814 77.768 2.66641 61.108 2.66641 40.557C2.66641 20.0061 19.3814 3.34601 40 3.34601C60.6186 3.34601 77.3336 20.0061 77.3336 40.557C77.3094 61.0985 60.6091 77.7439 40 77.768Z" fill="url(#paint0_linear)"/>
<path d="M44.4963 36.8918C44.7281 37.0459 45.0372 36.9689 45.3463 36.8148C45.5781 36.6608 45.7327 36.3527 45.6554 36.0447L44.8827 31.5005L48.2054 28.3426C48.4372 28.1116 48.5145 27.8035 48.4372 27.5725C48.3599 27.2644 48.1281 27.1103 47.8191 27.0333L43.2599 26.3402L41.2509 22.2581C41.019 21.719 40.0918 21.719 39.86 22.2581L37.8509 26.3402L33.2917 27.0333C32.9826 27.1103 32.7508 27.2644 32.6735 27.5725C32.5962 27.8806 32.6735 28.1887 32.9053 28.3426L36.228 31.5005L35.4554 36.0447C35.3781 36.3528 35.5326 36.6609 35.7645 36.8148C35.9963 36.9689 36.3054 37.0459 36.6144 36.8918L40.7099 34.7353L44.4963 36.8918ZM40.1691 33.1949L37.0008 34.8124L37.619 31.4235C37.6962 31.1925 37.5417 30.8844 37.3871 30.7304L34.9144 28.3428L38.3144 27.8807C38.5462 27.8807 38.778 27.6496 38.9325 27.4956L40.478 24.4147L42.0235 27.4956C42.1007 27.7266 42.3326 27.8807 42.6416 27.8807L46.0416 28.3428L43.5688 30.7304C43.4143 30.8845 43.337 31.1926 43.337 31.4235L43.9551 34.8124L40.9415 33.1949C40.8642 33.1179 40.7096 33.1179 40.5551 33.1179C40.4005 33.1179 40.3236 33.1179 40.1691 33.1949Z" fill="url(#paint1_linear)"/>
<path d="M51.9137 57.9222H48.5092V54.1442C48.5092 53.8789 48.4198 53.6463 48.2526 53.4796C48.0854 53.313 47.8522 53.2241 47.5865 53.2241H43.4092V44.6862C43.4099 44.6848 43.4109 44.6832 43.4119 44.6815C43.4203 44.668 43.4342 44.6505 43.452 44.6328C43.4697 44.6151 43.4874 44.6012 43.5009 44.5928C43.5028 44.5916 43.5045 44.5907 43.5059 44.5899H43.5124L43.5329 44.5839C47.2785 43.495 50.6207 40.4733 52.799 36.1548C57.7693 33.5031 60.7956 28.3813 60.7956 22.7204V21.7191C60.7956 21.4538 60.7062 21.2212 60.539 21.0545C60.3718 20.8879 60.1387 20.799 59.8729 20.799H55.8498C55.844 19.5845 55.7696 18.0593 55.6949 17.3141L55.6941 17.3068L55.6927 17.2995C55.6044 16.8603 55.2456 16.4859 54.7728 16.4859H25.95C25.4771 16.4859 25.1184 16.8603 25.0302 17.2995L25.0288 17.3067L25.028 17.314C24.9533 18.0592 24.8789 19.5844 24.8731 20.7989H20.7727C20.5069 20.7989 20.2737 20.8878 20.1066 21.0544C19.9394 21.2211 19.85 21.4538 19.85 21.719V22.7973C19.85 28.5342 22.8757 33.6575 27.8481 36.2331C30.1023 40.5503 33.3668 43.494 37.11 44.66L37.1318 44.6668H37.1546C37.1763 44.6668 37.1944 44.676 37.2115 44.6973C37.2204 44.7084 37.2274 44.7211 37.2319 44.7328C37.236 44.7435 37.2364 44.7493 37.2365 44.7488V53.301H33.0591C32.7934 53.301 32.5602 53.39 32.393 53.5566C32.2258 53.7233 32.1365 53.9559 32.1365 54.2212V57.9991H28.7319C28.4661 57.9991 28.233 58.0881 28.0658 58.2547C27.8986 58.4214 27.8092 58.654 27.8092 58.9193V65.9281V65.9372L27.8103 65.9461L27.8103 65.9461L27.8103 65.9462L27.8103 65.9464L27.8105 65.9479L27.8113 65.9551L27.8142 65.9845C27.8166 66.0106 27.8197 66.0491 27.8223 66.0974C27.8276 66.1942 27.8311 66.3297 27.8241 66.484C27.8153 66.6746 27.876 66.9462 28.0005 67.1723C28.124 67.3965 28.3362 67.6184 28.6485 67.6184H28.6798H28.7113H28.743H28.7749H28.8069H28.8391H28.8714H28.9039H28.9366H28.9695H29.0025H29.0357H29.0691H29.1026H29.1363H29.1701H29.2041H29.2383H29.2726H29.3071H29.3418H29.3766H29.4116H29.4467H29.482H29.5175H29.5531H29.5888H29.6247H29.6608H29.697H29.7334H29.7699H29.8066H29.8434H29.8804H29.9175H29.9548H29.9922H30.0298H30.0675H30.1053H30.1433H30.1815H30.2198H30.2582H30.2968H30.3355H30.3744H30.4134H30.4525H30.4918H30.5312H30.5708H30.6104H30.6503H30.6902H30.7303H30.7706H30.8109H30.8514H30.8921H30.9328H30.9737H31.0147H31.0559H31.0972H31.1386H31.1801H31.2218H31.2635H31.3055H31.3475H31.3896H31.4319H31.4743H31.5169H31.5595H31.6023H31.6452H31.6882H31.7313H31.7745H31.8179H31.8614H31.905H31.9487H31.9925H32.0364H32.0805H32.1247H32.1689H32.2133H32.2578H32.3024H32.3471H32.3919H32.4369H32.4819H32.527H32.5723H32.6176H32.6631H32.7086H32.7543H32.8001H32.8459H32.8919H32.938H32.9841H33.0304H33.0768H33.1232H33.1698H33.2164H33.2632H33.31H33.3569H33.404H33.4511H33.4983H33.5456H33.593H33.6405H33.688H33.7357H33.7835H33.8313H33.8792H33.9272H33.9753H34.0235H34.0718H34.1201H34.1685H34.217H34.2656H34.3143H34.363H34.4119H34.4608H34.5097H34.5588H34.6079H34.6572H34.7064H34.7558H34.8052H34.8547H34.9043H34.954H35.0037H35.0535H35.1033H35.1533H35.2033H35.2533H35.3034H35.3536H35.4039H35.4542H35.5046H35.5551H35.6056H35.6562H35.7068H35.7575H35.8083H35.8591H35.9099H35.9609H36.0119H36.0629H36.114H36.1652H36.2164H36.2677H36.319H36.3703H36.4218H36.4732H36.5248H36.5763H36.628H36.6796H36.7313H36.7831H36.8349H36.8868H36.9387H36.9906H37.0426H37.0946H37.1467H37.1988H37.251H37.3032H37.3554H37.4077H37.46H37.5123H37.5647H37.6171H37.6696H37.7221H37.7746H37.8272H37.8798H37.9324H37.985H38.0377H38.0904H38.1432H38.196H38.2488H38.3016H38.3544H38.4073H38.4602H38.5131H38.5661H38.6191H38.6721H38.7251H38.7781H38.8312H38.8842H38.9373H38.9905H39.0436H39.0967H39.1499H39.2031H39.2563H39.3095H39.3627H39.416H39.4692H39.5225H39.5757H39.629H39.6823H39.7356H39.7889H39.8422H39.8955H39.9489H40.0022H40.0555H40.1089H40.1622H40.2156H40.2689H40.3223H40.3756H40.429H40.4823H40.5357H40.589H40.6424H40.6957H40.749H40.8024H40.8557H40.909H40.9623H41.0156H41.0689H41.1222H41.1755H41.2287H41.282H41.3352H41.3884H41.4417H41.4949H41.548H41.6012H41.6544H41.7075H41.7606H41.8137H41.8668H41.9199H41.9729H42.026H42.079H42.132H42.1849H42.2379H42.2908H42.3437H42.3965H42.4494H42.5022H42.5549H42.6077H42.6604H42.7131H42.7658H42.8184H42.871H42.9236H42.9761H43.0286H43.0811H43.1335H43.1859H43.2383H43.2906H43.3429H43.3952H43.4474H43.4996H43.5517H43.6038H43.6558H43.7078H43.7598H43.8117H43.8636H43.9154H43.9672H44.0189H44.0706H44.1223H44.1739H44.2254H44.2769H44.3283H44.3797H44.4311H44.4824H44.5336H44.5848H44.6359H44.687H44.738H44.7889H44.8398H44.8907H44.9415H44.9922H45.0428H45.0934H45.144H45.1945H45.2449H45.2952H45.3455H45.3957H45.4459H45.496H45.546H45.596H45.6458H45.6957H45.7454H45.7951H45.8447H45.8942H45.9437H45.9931H46.0424H46.0916H46.1408H46.1899H46.2389H46.2878H46.3367H46.3855H46.4342H46.4828H46.5313H46.5798H46.6282H46.6765H46.7247H46.7728H46.8208H46.8688H46.9167H46.9645H47.0122H47.0598H47.1073H47.1547H47.2021H47.2493H47.2965H47.3435H47.3905H47.4374H47.4842H47.5308H47.5774H47.6239H47.6703H47.7166H47.7628H47.809H47.855H47.9009H47.9467H47.9924H48.038H48.0835H48.1289H48.1741H48.2193H48.2644H48.3094H48.3542H48.399H48.4436H48.4882H48.5326H48.5769H48.6211H48.6652H48.7092H48.7531H48.7968H48.8405H48.884H48.9274H48.9707H49.0139H49.0569H49.0999H49.1427H49.1854H49.228H49.2704H49.3127H49.3549H49.397H49.439H49.4808H49.5225H49.5641H49.6056H49.6469H49.6881H49.7292H49.7701H49.811H49.8516H49.8922H49.9326H49.9729H50.013H50.0531H50.0929H50.1327H50.1723H50.2118H50.2511H50.2903H50.3293H50.3683H50.407H50.4457H50.4842H50.5225H50.5607H50.5988H50.6367H50.6745H50.7121H50.7496H50.7869H50.8241H50.8611H50.898H50.9347H50.9713H51.0078H51.044H51.0802H51.1161H51.152H51.1876H51.2231H51.2585H51.2937H51.3287H51.3636H51.3983H51.4329H51.4673H51.5015H51.5356H51.5695H51.6033H51.6369H51.6703H51.7036H51.7367H51.7696H51.8023H51.8349H51.8674H51.8996H51.9317H51.9636H51.9954H52.0269H52.0583H52.0895H52.1206H52.1515C52.421 67.6184 52.6198 67.5256 52.7402 67.3375C52.851 67.1644 52.8785 66.9345 52.8785 66.6982C52.8785 66.3187 52.8682 66.1793 52.8555 66.1007C52.8523 66.0803 52.849 66.0648 52.8463 66.0527L52.8462 66.0521C52.8436 66.0402 52.8423 66.034 52.8411 66.0265C52.8389 66.0128 52.8364 65.9889 52.8364 65.9282V58.8424C52.8364 58.5771 52.747 58.3444 52.5798 58.1777C52.4126 58.0111 52.1794 57.9222 51.9137 57.9222ZM41.6409 44.6709V53.2241H39.2363V44.6709V44.6634L39.2355 44.656C39.1524 43.8277 38.5715 43.0819 37.7384 42.8328L37.7377 42.8326C34.3873 41.846 31.4023 39.1082 29.4067 35.1303C27.6412 31.6109 26.6408 27.2443 26.6408 22.4894C26.6408 21.4572 26.712 19.5004 26.786 18.3263H54.0135C54.0877 19.5688 54.1591 21.5292 54.1591 22.4894C54.1591 27.2462 53.2353 31.6123 51.4705 35.1303C49.4753 39.1076 46.4908 41.8451 43.1409 42.8321C42.2333 43.0795 41.6409 43.8266 41.6409 44.6709ZM56.0043 22.6394H59.1046V22.7975C59.1046 26.8827 57.2827 30.6864 54.2457 33.1404C55.3601 30.0397 55.9883 26.4755 56.0043 22.6394ZM21.6954 22.7974V22.6393H24.7957C24.8119 26.4043 25.4402 29.9641 26.5544 33.0638C23.5167 30.6153 21.6954 26.8818 21.6954 22.7974ZM34.0591 55.1415H46.6637V57.9994H34.0591V55.1415ZM51.0682 65.7782H29.8091V59.7626H29.8149H29.8534H29.8916H29.9296H29.9674H30.005H30.0424H30.0796H30.1166H30.1534H30.19H30.2264H30.2626H30.2986H30.3344H30.3701H30.4055H30.4408H30.4758H30.5107H30.5454H30.5799H30.6142H30.6483H30.6823H30.7161H30.7497H30.7831H30.8164H30.8494H30.8823H30.9151H30.9476H30.98H31.0123H31.0443H31.0762H31.108H31.1396H31.171H31.2022H31.2333H31.2643H31.2951H31.3257H31.3562H31.3865H31.4167H31.4468H31.4767H31.5064H31.536H31.5655H31.5948H31.624H31.653H31.6819H31.7107H31.7393H31.7678H31.7962H31.8244H31.8525H31.8805H31.9083H31.936H31.9636H31.9911H32.0185H32.0457H32.0728H32.0998H32.1267H32.1535H32.1801H32.2066H32.2331H32.2594H32.2856H32.3117H32.3377H32.3636H32.3894H32.4151H32.4407H32.4662H32.4916H32.5169H32.5421H32.5672H32.5922H32.6171H32.6419H32.6667H32.6913H32.7159H32.7404H32.7648H32.7891H32.8134H32.8375H32.8616H32.8856H32.9096H32.9334H32.9572H32.9809H33.0046H33.0281H33.0517H33.0751H33.0985H33.1218H33.1451H33.1683H33.1914H33.2145H33.2375H33.2604H33.2834H33.3062H33.329H33.3518H33.3745H33.3972H33.4198H33.4423H33.4649H33.4874H33.5098H33.5322H33.5546H33.5769H33.5992H33.6215H33.6437H33.6659H33.6881H33.7102H33.7323H33.7544H33.7765H33.7985H33.8205H33.8425H33.8645H33.8864H33.9084H33.9303H33.9522H33.9741H33.996H34.0179H34.0397H34.0616H34.0834H34.1053H34.1271H34.149H34.1708H34.1927H34.2145H34.2364H34.2582H34.2801H34.3019H34.3238H34.3457H34.3676H34.3895H34.4114H34.4333H34.4553H34.4773H34.4992H34.5212H34.5433H34.5653H34.5874H34.6095H34.6316H34.6538H34.676H34.6982H34.7205H34.7427H34.7651H34.7874H34.8098H34.8322H34.8547H34.8772H34.8998H34.9224H34.945H34.9677H34.9905H35.0133H35.0361H35.059H35.0819H35.1049H35.128H35.1511H35.1743H35.1975H35.2208H35.2442H35.2676H35.2911H35.3146H35.3383H35.362H35.3857H35.4096H35.4335H35.4575H35.4815H35.5057H35.5299H35.5542H35.5785H35.603H35.6275H35.6522H35.6769H35.7017H35.7266H35.7516H35.7767H35.8018H35.8271H35.8524H35.8779H35.9035H35.9291H35.9549H35.9807H36.0067H36.0328H36.0589H36.0852H36.1116H36.1381H36.1647H36.1915H36.2183H36.2453H36.2723H36.2995H36.3268H36.3543H36.3818H36.4095H36.4373H36.4653H36.4933H36.5215H36.5498H36.5783H36.6069H36.6356H36.6644H36.6934H36.7226H36.7518H36.7812H36.8108H36.8405H36.8703H36.9003H36.9305H36.9607H36.9912H37.0218H37.0525H37.0834H37.1145H37.1457H37.177H37.2086H37.2402H37.2721H37.3041H37.3363H37.3686H37.4011H37.4338H37.4667H37.4997H37.5329H37.5662H37.5998H37.6335H37.6674H37.7015H37.7358H37.7702H37.8048H37.8396H37.8746H37.9098H37.9452H37.9807H38.0165H38.0524H38.0886H38.1249H38.1615H38.1982H38.2351H38.2723H38.3096H38.3471H38.3849H38.4228H38.461H38.4993H38.5379H38.5767H38.6157H38.6549H38.6943H38.734H38.7738H38.8139H38.8542H38.8947H38.9355H38.9765H39.0177H39.0591H39.1007H39.1426H39.1847H39.2271H39.2697H39.3125H39.3555H39.3988H39.4424H39.4861H39.5301H39.5744H39.6189H39.6636H39.7086H39.7539H39.7994H39.8451H39.8911H39.9373H39.9839H40.0306H40.0776H40.1249H40.1724H40.2202H40.2683H40.3166H40.3652H40.4141H40.4632H40.5126H40.5623H40.6122H40.6624H40.7129H40.7637H40.8147H40.8661H40.9177H40.9696H41.0217H41.0742H41.1269H41.1799H41.2333H41.2869H41.3407H41.3949H41.4494H41.5042H41.5593H41.6146H41.6703H41.7263H41.7825H41.8391H41.896H41.9532H42.0107H42.0684H42.1266H42.185H42.2437H42.3027H42.3621H42.4218H42.4818H42.5421H42.6027H42.6637H42.7249H42.7865H42.8485H42.9107H42.9733H43.0362H43.0994H43.163H43.2269H43.2911H43.3557H43.4206H43.4859H43.5515H43.6174H43.6837H43.7503H43.8173H43.8846H43.9522H44.0202H44.0886H44.1573H44.2264H44.2958H44.3656H44.4357H44.5062H44.577H44.6483H44.7198H44.7918H44.8641H44.9367H45.0098H45.0832H45.157H45.2311H45.3056H45.3805H45.4558H45.5315H45.6075H45.6839H45.7607H45.8379H45.9154H45.9934H46.0717H46.1504H46.2295H46.309H46.3889H46.4692H46.5498H46.6309H46.7124H46.7942H46.8765H46.9592H47.0422H47.1257H47.2096H47.2939H47.3786H47.4637H47.5492H47.6351H47.7214H47.8082H47.8954H47.9829H48.0709H48.1594H48.2482H48.3375H48.4272H48.5173H48.6078H48.6988H48.7902H48.882H48.9742H49.0669H49.1601H49.2536H49.3476H49.442H49.5369H49.6322H49.728H49.8242H49.9208H50.0179H50.1155H50.2134H50.3119H50.4108H50.5101H50.6099H50.7102H50.8109H50.912H51.0137H51.0683L51.0682 65.7782Z" fill="url(#paint2_linear)" stroke="url(#paint3_linear)" stroke-width="0.3"/>
</g>
<defs>
<linearGradient id="paint0_linear" x1="-16.8358" y1="86.268" x2="93.2299" y2="-10.2468" gradientUnits="userSpaceOnUse">
<stop stop-color="#2E72CD"/>
<stop offset="1" stop-color="#00ABEE"/>
</linearGradient>
<linearGradient id="paint1_linear" x1="32.836" y1="36.0902" x2="48.7697" y2="21.0069" gradientUnits="userSpaceOnUse">
<stop stop-color="#2E72CD"/>
<stop offset="1" stop-color="#00ABEE"/>
</linearGradient>
<linearGradient id="paint2_linear" x1="20.4918" y1="64.4913" x2="71.4404" y2="27.6327" gradientUnits="userSpaceOnUse">
<stop stop-color="#2E72CD"/>
<stop offset="1" stop-color="#00ABEE"/>
</linearGradient>
<linearGradient id="paint3_linear" x1="20.4918" y1="64.4913" x2="71.4404" y2="27.6327" gradientUnits="userSpaceOnUse">
<stop stop-color="#2E72CD"/>
<stop offset="1" stop-color="#00ABEE"/>
</linearGradient>
<clipPath id="clip0">
<rect width="80" height="79.7373" fill="white" transform="translate(0 0.688354)"/>
</clipPath>
</defs>
</svg>
