<svg width="40" height="40" viewBox="0 0 40 40" fill="none" xmlns="http://www.w3.org/2000/svg">
<path d="M36.6673 8.8893C36.6673 5.97004 34.0318 3.33337 31.1118 3.33337H8.88954C5.96954 3.33337 3.33398 5.97004 3.33398 8.8893V31.1108C3.33398 34.03 5.96954 36.6667 8.88991 36.6667H20.0007V24.0741H15.9266V18.5186H20.0007V16.3541C20.0007 12.6212 22.8036 9.2593 26.2507 9.2593H30.7414V14.8149H26.2507C25.7592 14.8149 25.1858 15.4115 25.1858 16.3052V18.5186H30.7414V24.0741H25.1858V36.6667H31.1118C34.0318 36.6667 36.6673 34.03 36.6673 31.1108V8.8893Z" fill="url(#paint0_linear)"/>
<defs>
<linearGradient id="paint0_linear" x1="3.73732" y1="34.7145" x2="38.7373" y2="3.04782" gradientUnits="userSpaceOnUse">
<stop stop-color="#2E72CD"/>
<stop offset="1" stop-color="#00ABEE"/>
</linearGradient>
</defs>
</svg>
