<svg width="80" height="80" viewBox="0 0 80 80" fill="none" xmlns="http://www.w3.org/2000/svg">
<path d="M40 80C17.9089 80 0 62.0911 0 40C0 17.9089 17.9089 0 40 0C62.0911 0 80 17.9089 80 40C79.9753 62.0807 62.0807 79.9753 40 80ZM40 2.66667C19.3815 2.66667 2.66667 19.3815 2.66667 40C2.66667 60.6185 19.3815 77.3333 40 77.3333C60.6185 77.3333 77.3333 60.6185 77.3333 40C77.3099 19.3913 60.6087 2.6901 40 2.66667Z" fill="url(#paint0_linear)"/>
<path d="M26.3998 64.677C25.1914 64.6763 24.0475 64.1282 23.2891 63.1867C22.5306 62.246 22.239 61.0123 22.4948 59.8306L25.0651 47.9009C25.1615 47.4608 25.0267 47.0025 24.7077 46.6841L16.0827 37.9895C15.0228 36.9211 14.6524 35.3489 15.1231 33.9205C15.5938 32.4914 16.8262 31.4478 18.3132 31.2187L29.1999 29.5442C29.6016 29.4823 29.9525 29.2414 30.155 28.8892L36.3548 18.0826C37.0905 16.8 38.4733 16.0279 39.9512 16.0748C41.4291 16.1216 42.7604 16.9797 43.4134 18.3065L48.5801 28.8131C48.7741 29.2089 49.1517 29.483 49.5879 29.5455L61.6003 31.2623C63.0957 31.4784 64.3425 32.5194 64.8216 33.953C65.3015 35.386 64.9317 36.9674 63.8666 38.0396L55.2904 46.6828C54.9733 47.0025 54.8392 47.4608 54.9336 47.9009L57.5039 59.8306C57.8236 61.3124 57.278 62.8476 56.0944 63.7955C54.9115 64.7434 53.2936 64.9407 51.9173 64.3052L40.5586 59.0663C40.2044 58.9029 39.7956 58.9029 39.4414 59.0663L28.0749 64.3117C27.5495 64.5533 26.9779 64.6776 26.3998 64.677ZM39.8268 18.7401C39.3477 18.7317 38.9024 18.9875 38.6693 19.4068L32.4681 30.2147C31.8633 31.274 30.8067 31.9986 29.6003 32.1796L18.711 33.8547C18.2149 33.9309 17.8041 34.2792 17.6478 34.7558C17.4909 35.2323 17.6146 35.7558 17.9681 36.1119L26.5931 44.8052C27.5475 45.7642 27.9492 47.1425 27.6602 48.4641L25.0944 60.3996C24.9876 60.8951 25.1699 61.4081 25.5658 61.7239C25.9616 62.0403 26.5026 62.1047 26.9616 61.8905L38.3281 56.6451C39.3913 56.1549 40.6159 56.1549 41.6784 56.6451L53.0456 61.8905C53.5046 62.1047 54.0449 62.0403 54.4408 61.7239C54.8366 61.4081 55.0196 60.8951 54.9121 60.3996L52.3412 48.4706C52.0521 47.1483 52.4538 45.7701 53.4082 44.8104L61.9824 36.1692C62.3373 35.8118 62.4603 35.2844 62.3002 34.8065C62.14 34.3287 61.724 33.9823 61.2253 33.9107L49.1999 32.1868C47.8913 31.9993 46.7591 31.1776 46.1758 29.9908L41.0091 19.4836C40.7969 19.037 40.3503 18.7493 39.8561 18.7401H39.8268Z" fill="url(#paint1_linear)"/>
<defs>
<linearGradient id="paint0_linear" x1="2.01467" y1="79.3253" x2="77.5707" y2="1.10267" gradientUnits="userSpaceOnUse">
<stop stop-color="#2E72CD"/>
<stop offset="1" stop-color="#00ABEE"/>
</linearGradient>
<linearGradient id="paint1_linear" x1="16.1839" y1="64.2671" x2="62.0186" y2="15.3482" gradientUnits="userSpaceOnUse">
<stop stop-color="#2E72CD"/>
<stop offset="1" stop-color="#00ABEE"/>
</linearGradient>
</defs>
</svg>
