<svg width="80" height="80" viewBox="0 0 80 80" fill="none" xmlns="http://www.w3.org/2000/svg">
<path d="M40 0C17.9089 0 0 17.9089 0 40C0 62.0911 17.9089 80 40 80C62.0911 80 80 62.0911 80 40C79.9727 17.9199 62.0801 0.0273437 40 0ZM40 77.3333C19.3815 77.3333 2.66667 60.6185 2.66667 40C2.66667 19.3815 19.3815 2.66667 40 2.66667C60.6185 2.66667 77.3333 19.3815 77.3333 40C77.3105 60.6094 60.6094 77.3105 40 77.3333Z" fill="url(#paint0_linear)"/>
<path d="M57.3333 41.3333H54.6666V39.4264C57.0905 38.3685 58.6601 35.9779 58.6666 33.3333C60.1373 33.3288 61.3287 32.1374 61.3333 30.6667V26.6667C61.3287 25.196 60.1373 24.0046 58.6666 24C58.6666 20.3066 55.7597 16 52 16H48C44.2402 16 41.3333 20.3066 41.3333 24C39.8626 24.0046 38.6712 25.196 38.6666 26.6667V30.6667C38.6712 32.1374 39.8626 33.3288 41.3333 33.3333C41.3398 35.9779 42.9095 38.3685 45.3333 39.4264V41.3333H42.6666C39.5507 41.3379 36.6419 42.8926 34.9069 45.4798C34.3886 45.377 33.8613 45.3281 33.3333 45.3333H30.6666V43.4264C33.0905 42.3685 34.6601 39.9779 34.6666 37.3333C36.1373 37.3288 37.3287 36.1374 37.3333 34.6667V32C37.3287 30.5293 36.1373 29.3379 34.6666 29.3333C34.6666 25.64 31.7597 21.3333 28 21.3333H25.3333C21.5735 21.3333 18.6666 25.64 18.6666 29.3333C17.1959 29.3379 16.0045 30.5293 16 32V34.6667C16.0045 36.1374 17.1959 37.3288 18.6666 37.3333C18.6731 39.9779 20.2428 42.3685 22.6666 43.4264V45.3333H20C14.8476 45.3392 10.6725 49.5143 10.6666 54.6667V58.6667H66.6666V50.6667C66.6608 45.5143 62.4856 41.3392 57.3333 41.3333ZM13.3333 56V54.6667C13.3333 50.985 16.3183 48 20 48H25.3333V41.4531L24.3333 41.1868C22.5722 40.7357 21.3392 39.151 21.3333 37.3333V34.6667H18.6666V32H21.3333V29.3333C21.3333 27 23.2799 24 25.3333 24H28C30.0533 24 32 27 32 29.3333V32H34.6666V34.6667H32V37.3333C31.9941 39.151 30.761 40.7357 29 41.1868L28 41.4531V48H33.3333C33.4628 47.9954 33.5924 48.0039 33.72 48.0267C33.4622 48.8828 33.332 49.7721 33.3333 50.6667V56H13.3333ZM64 56H36V50.6667C36.0019 49.998 36.1009 49.3333 36.2936 48.6934C37.1588 45.9004 39.7428 43.9974 42.6666 44H48V37.4531L47 37.1868C45.2389 36.7357 44.0058 35.151 44 33.3333V30.6667H41.3333V26.6667H44V24C44 21.6667 45.9466 18.6667 48 18.6667H52C54.0533 18.6667 56 21.6667 56 24V26.6667H58.6666V30.6667H56V33.3333C55.9941 35.151 54.761 36.7357 53 37.1868L52 37.4531V44H57.3333C61.0149 44 64 46.985 64 50.6667V56Z" fill="url(#paint1_linear)"/>
<defs>
<linearGradient id="paint0_linear" x1="7.532" y1="73.3" x2="76.8653" y2="2.18934" gradientUnits="userSpaceOnUse">
<stop stop-color="#2E72CD"/>
<stop offset="1" stop-color="#00ABEE"/>
</linearGradient>
<linearGradient id="paint1_linear" x1="15.939" y1="55.0933" x2="51.3526" y2="7.42149" gradientUnits="userSpaceOnUse">
<stop stop-color="#2E72CD"/>
<stop offset="1" stop-color="#00ABEE"/>
</linearGradient>
</defs>
</svg>
