<svg width="80" height="80" viewBox="0 0 80 80" fill="none" xmlns="http://www.w3.org/2000/svg">
<path d="M40 0C17.9089 0 0 17.9089 0 40C0 62.0911 17.9089 80 40 80C62.0911 80 80 62.0911 80 40C79.9753 17.9193 62.0807 0.0247397 40 0ZM40 77.3333C19.3815 77.3333 2.66667 60.6185 2.66667 40C2.66667 19.3815 19.3815 2.66667 40 2.66667C60.6185 2.66667 77.3333 19.3815 77.3333 40C77.3099 60.6087 60.6087 77.3099 40 77.3333Z" fill="url(#paint0_linear)"/>
<path d="M21.334 34.6666H26.6673C27.4036 34.6666 28.0007 35.2636 28.0007 36H30.6673C30.6673 33.791 28.8763 32 26.6673 32H25.334V30.6666H22.6673V32H21.334C19.125 32 17.334 33.791 17.334 36V37.3333C17.334 39.5423 19.125 41.3333 21.334 41.3333H26.6673C27.4036 41.3333 28.0007 41.9303 28.0007 42.6666V44C28.0007 44.7363 27.4036 45.3333 26.6673 45.3333H21.334C20.5977 45.3333 20.0007 44.7363 20.0007 44H17.334C17.334 46.2089 19.125 48 21.334 48H22.6673V49.3333H25.334V48H26.6673C28.8763 48 30.6673 46.2089 30.6673 44V42.6666C30.6673 40.4576 28.8763 38.6666 26.6673 38.6666H21.334C20.5977 38.6666 20.0007 38.0696 20.0007 37.3333V36C20.0007 35.2636 20.5977 34.6666 21.334 34.6666Z" fill="url(#paint1_linear)"/>
<path d="M69.334 30.6667H66.6673V26.6667C66.6673 25.9304 66.0703 25.3334 65.334 25.3334H38.6673C37.931 25.3334 37.334 25.9304 37.334 26.6667V32C37.334 32.7364 37.931 33.3334 38.6673 33.3334H41.334V36H40.0006C39.2643 36 38.6673 36.597 38.6673 37.3334V42.6667C38.6673 43.403 39.2643 44 40.0006 44V46.6667H37.0566C38.1191 44.6055 38.6712 42.3191 38.6673 40C38.6673 31.8998 32.1009 25.3334 24.0007 25.3334C15.9004 25.3334 9.33398 31.8998 9.33398 40C9.33398 48.1003 15.9004 54.6667 24.0007 54.6667C26.3197 54.6706 28.6055 54.1185 30.6673 53.0573V53.3334C30.6673 54.0697 31.2643 54.6667 32.0007 54.6667H58.6673C59.4036 54.6667 60.0006 54.0697 60.0006 53.3334V49.3334H68.0006C68.737 49.3334 69.334 48.7364 69.334 48V42.6667C69.334 41.9304 68.737 41.3334 68.0006 41.3334V38.6667H69.334C70.0703 38.6667 70.6673 38.0697 70.6673 37.3334V32C70.6673 31.2637 70.0703 30.6667 69.334 30.6667ZM40.0006 28H64.0006V30.6667H40.0006V28ZM12.0007 40C12.0007 33.3724 17.373 28 24.0007 28C30.6283 28 36.0006 33.3724 36.0006 40C36.0065 42.6029 35.1562 45.1361 33.5807 47.2077C32.9115 48.1166 32.1094 48.9193 31.2005 49.5892C29.1296 51.1595 26.5996 52.0066 24.0007 52C17.3763 51.9929 12.0078 46.6244 12.0007 40ZM57.334 52H33.334V51.2611C34.0391 50.6843 34.6849 50.0385 35.2617 49.3334H57.334V52ZM66.6673 46.6667H42.6673V44H66.6673V46.6667ZM65.334 41.3334H41.334V38.6667H65.334V41.3334ZM68.0006 36H44.0006V33.3334H68.0006V36Z" fill="url(#paint2_linear)"/>
<defs>
<linearGradient id="paint0_linear" x1="0.968002" y1="75.3147" x2="84.968" y2="-0.685336" gradientUnits="userSpaceOnUse">
<stop stop-color="#2E72CD"/>
<stop offset="1" stop-color="#00ABEE"/>
</linearGradient>
<linearGradient id="paint1_linear" x1="17.4953" y1="48.2401" x2="35.4548" y2="36.6336" gradientUnits="userSpaceOnUse">
<stop stop-color="#2E72CD"/>
<stop offset="1" stop-color="#00ABEE"/>
</linearGradient>
<linearGradient id="paint2_linear" x1="10.0761" y1="52.9488" x2="35.6543" y2="4.56069" gradientUnits="userSpaceOnUse">
<stop stop-color="#2E72CD"/>
<stop offset="1" stop-color="#00ABEE"/>
</linearGradient>
</defs>
</svg>
