<svg width="80" height="80" viewBox="0 0 80 80" fill="none" xmlns="http://www.w3.org/2000/svg">
<path d="M40 0C17.9089 0 0 17.9089 0 40C0 62.0911 17.9089 80 40 80C62.0911 80 80 62.0911 80 40C79.9753 17.9193 62.0807 0.0247397 40 0ZM40 77.3333C19.3815 77.3333 2.66667 60.6185 2.66667 40C2.66667 19.3815 19.3815 2.66667 40 2.66667C60.6185 2.66667 77.3333 19.3815 77.3333 40C77.3099 60.6087 60.6087 77.3099 40 77.3333Z" fill="url(#paint0_linear)"/>
<path d="M62.4668 33.3866C61.3014 25.0903 54.7474 18.5897 46.442 17.492C38.1367 16.395 30.1191 20.9712 26.8398 28.6795C25.4954 28.2277 24.0853 27.9979 22.6666 27.9998C15.3027 27.9998 9.33331 33.9692 9.33331 41.3332C9.33331 48.6971 15.3027 54.6665 22.6666 54.6665H34.6666V61.3332H45.3333V54.6665H61.3333C67.0312 54.7043 71.7519 50.257 72.0553 44.5676C72.3581 38.8775 68.136 33.9543 62.4668 33.3866ZM42.6666 58.6665H37.3333V46.6665H31.9466L40 35.6001L48.0534 46.6665H42.6666V58.6665ZM61.3333 51.9998H45.3333V49.3332H53.2799L40 31.0663L26.72 49.3332H34.6666V51.9998H22.6666C16.7754 51.9998 12 47.2245 12 41.3332C12 35.4419 16.7754 30.6665 22.6666 30.6665C24.1816 30.6633 25.6784 30.9907 27.0534 31.6268L28.3997 32.2264L28.8665 30.8397C31.3099 23.6515 38.4733 19.1743 46.0052 20.1281C53.5371 21.0819 59.3587 27.203 59.9336 34.7733L60.0267 35.9998H61.373C65.7916 36.0109 69.3646 39.6014 69.3535 44.02C69.3424 48.438 65.7513 52.0109 61.3333 51.9998Z" fill="url(#paint1_linear)"/>
<defs>
<linearGradient id="paint0_linear" x1="1.98533" y1="78.452" x2="79.3187" y2="0.229336" gradientUnits="userSpaceOnUse">
<stop stop-color="#2E72CD"/>
<stop offset="1" stop-color="#00ABEE"/>
</linearGradient>
<linearGradient id="paint1_linear" x1="10.8902" y1="60.4817" x2="50.7286" y2="3.02852" gradientUnits="userSpaceOnUse">
<stop stop-color="#2E72CD"/>
<stop offset="1" stop-color="#00ABEE"/>
</linearGradient>
</defs>
</svg>
