<svg width="80" height="80" viewBox="0 0 80 80" fill="none" xmlns="http://www.w3.org/2000/svg">
<path d="M40 0C17.9084 0 0 17.9084 0 40C0 62.0916 17.9084 80 40 80C62.0916 80 80 62.0916 80 40C79.9752 17.9192 62.0808 0.0247714 40 0ZM40 77.3336C19.3814 77.3336 2.66641 60.6186 2.66641 40C2.66641 19.3814 19.3814 2.66641 40 2.66641C60.6186 2.66641 77.3336 19.3814 77.3336 40C77.3094 60.6091 60.6091 77.3094 40 77.3336Z" fill="url(#paint0_linear)"/>
<path d="M53.7505 19.8106C53.2297 19.2904 52.3862 19.2904 51.8654 19.8106L33.5155 38.1598C29.4054 35.7855 24.2263 36.3737 20.7532 39.6092C16.5948 43.7676 17.0197 50.9583 21.6958 55.6369C23.8547 57.8409 26.7402 59.1862 29.8157 59.4237C30.0825 59.4422 30.3333 59.4504 30.5868 59.4504C33.2545 59.4904 35.8269 58.4564 37.7241 56.5795C40.9558 53.1045 41.5427 47.9279 39.1716 43.8172L45.2667 37.724L46.2092 38.6666C46.7301 39.1868 47.5736 39.1868 48.0944 38.6666L51.8666 34.8957C52.3868 34.3748 52.3868 33.5307 51.8666 33.0105L50.9228 32.066L52.8079 30.1809L55.637 33.0086C56.1578 33.5294 57.0019 33.5294 57.5228 33.0086L61.2943 29.2383C61.8152 28.7174 61.8152 27.8733 61.2943 27.3525L53.7505 19.8106ZM56.5802 30.1809L53.7505 27.3531C53.2297 26.8329 52.3862 26.8329 51.8654 27.3531L48.0944 31.1241C47.5742 31.6443 47.5742 32.4884 48.0944 33.0092L49.037 33.9531L47.1518 35.8389L46.2092 34.8963C45.6801 34.3958 44.8525 34.3958 44.3241 34.8963L36.5649 42.6548C36.1248 43.0956 36.0479 43.7829 36.3807 44.3094C38.6235 47.8612 38.4012 52.1308 35.8383 54.695C34.2866 56.2022 32.1544 56.958 29.9999 56.7643C27.5678 56.5693 25.2889 55.4984 23.5866 53.7505C19.9478 50.1123 19.5248 44.6149 22.6441 41.495C24.049 40.1256 25.9437 39.3748 27.9051 39.411C29.7242 39.4314 31.5008 39.9655 33.029 40.9532C33.5562 41.286 34.2434 41.2092 34.6836 40.7677L52.8168 22.6345L58.4742 28.2919L56.5802 30.1809Z" fill="url(#paint1_linear)"/>
<path d="M25.4668 44.324C23.3835 46.4061 23.3829 49.7832 25.4656 51.8666C27.5483 53.9493 30.9248 53.9499 33.0081 51.8672C35.0908 49.7851 35.0914 46.408 33.0094 44.3253C33.0087 44.3246 33.0081 44.324 33.0081 44.324C30.8987 42.3074 27.5762 42.3074 25.4668 44.324ZM31.1223 49.9801C30.0673 50.9875 28.407 50.9875 27.352 49.9801C26.3103 48.9385 26.3103 47.2502 27.3514 46.2085C28.3924 45.1669 30.0813 45.1669 31.1223 46.2079C32.164 47.2496 32.1646 48.9378 31.123 49.9795C31.123 49.9795 31.123 49.9795 31.1223 49.9801Z" fill="url(#paint2_linear)"/>
<defs>
<linearGradient id="paint0_linear" x1="-25.2373" y1="101.16" x2="128.133" y2="-21.0606" gradientUnits="userSpaceOnUse">
<stop stop-color="#2E72CD"/>
<stop offset="1" stop-color="#00ABEE"/>
</linearGradient>
<linearGradient id="paint1_linear" x1="4.07642" y1="70.0397" x2="82.0724" y2="2.0437" gradientUnits="userSpaceOnUse">
<stop stop-color="#2E72CD"/>
<stop offset="1" stop-color="#00ABEE"/>
</linearGradient>
<linearGradient id="paint2_linear" x1="20.539" y1="56.2372" x2="40.9147" y2="39.9246" gradientUnits="userSpaceOnUse">
<stop stop-color="#2E72CD"/>
<stop offset="1" stop-color="#00ABEE"/>
</linearGradient>
</defs>
</svg>
