<svg width="40" height="40" viewBox="0 0 40 40" fill="none" xmlns="http://www.w3.org/2000/svg">
<path d="M22.9484 17.8458C22.2875 16.9206 21.2037 16.3126 19.9877 16.3126C18.7718 16.3126 17.688 16.9206 17.0271 17.8458C16.6042 18.4538 16.3398 19.1939 16.3398 19.987C16.3398 21.9959 17.9788 23.6349 19.9877 23.6349C21.9967 23.6349 23.6356 21.9959 23.6356 19.987C23.6356 19.1939 23.3713 18.4538 22.9484 17.8458Z" fill="url(#paint0_linear)"/>
<path d="M25.2486 17.8721C25.5129 18.4008 25.6715 19.2466 25.6715 19.9868C25.6715 23.106 23.1338 25.6701 19.9882 25.6701C16.8425 25.6701 14.3049 23.1324 14.3049 19.9868C14.3049 19.2202 14.4635 18.4008 14.7278 17.8721H11.5293V26.3574C11.5293 27.4676 12.5074 28.4457 13.6176 28.4457H26.3588C27.469 28.4457 28.4471 27.4676 28.4471 26.3574V17.8721H25.2486Z" fill="url(#paint1_linear)"/>
<path d="M27.4941 12.0039H24.4277V15.5196H27.917V12.4532V11.9774L27.4941 12.0039Z" fill="url(#paint2_linear)"/>
<path d="M28.2877 3.33337H11.6871C7.08762 3.33337 3.33398 7.08701 3.33398 11.6865V28.3136C3.33398 32.8866 7.08762 36.6403 11.6871 36.6403H28.3142C32.9137 36.6403 36.6673 32.8866 36.6673 28.2871V11.6865C36.6409 7.08701 32.8873 3.33337 28.2877 3.33337ZM30.2967 17.8457V26.3574C30.2967 28.5779 28.5785 30.2961 26.358 30.2961H13.6168C11.3964 30.2961 9.67816 28.5779 9.67816 26.3574V17.8457V13.6162C9.67816 11.3958 11.3964 9.67755 13.6168 9.67755H26.358C28.5785 9.67755 30.2967 11.3958 30.2967 13.6162V17.8457Z" fill="url(#paint3_linear)"/>
<defs>
<linearGradient id="paint0_linear" x1="16.4281" y1="23.206" x2="24.1136" y2="16.2776" gradientUnits="userSpaceOnUse">
<stop stop-color="#2E72CD"/>
<stop offset="1" stop-color="#00ABEE"/>
</linearGradient>
<linearGradient id="paint1_linear" x1="11.734" y1="27.8264" x2="22.1698" y2="12.7194" gradientUnits="userSpaceOnUse">
<stop stop-color="#2E72CD"/>
<stop offset="1" stop-color="#00ABEE"/>
</linearGradient>
<linearGradient id="paint2_linear" x1="24.47" y1="15.3121" x2="28.1832" y2="12.0026" gradientUnits="userSpaceOnUse">
<stop stop-color="#2E72CD"/>
<stop offset="1" stop-color="#00ABEE"/>
</linearGradient>
<linearGradient id="paint3_linear" x1="3.73732" y1="34.6896" x2="38.7123" y2="3.02044" gradientUnits="userSpaceOnUse">
<stop stop-color="#2E72CD"/>
<stop offset="1" stop-color="#00ABEE"/>
</linearGradient>
</defs>
</svg>
