<svg width="130" height="82" viewBox="0 0 130 82" fill="none" xmlns="http://www.w3.org/2000/svg">
<path fill-rule="evenodd" clip-rule="evenodd" d="M8.94737 4.47368H121.053C123.523 4.47368 125.526 6.47663 125.526 8.94737V13.9366H4.47368V8.94737C4.47368 6.47662 6.47662 4.47368 8.94737 4.47368ZM130 18.4103V13.9366V8.94737C130 4.00587 125.994 0 121.053 0H8.94737C4.00587 0 0 4.00588 0 8.94737V13.9366V18.4103V77.3498V81.8235H4.47368H125.526H130V77.3498V18.4103ZM4.47368 77.3498V18.4103H125.526V77.3498H4.47368ZM76.4709 36.3236L76.4709 36.2942C76.455 30.1838 71.4968 25.2354 65.3827 25.2354C59.2686 25.2354 54.3104 30.1838 54.2945 36.2942L54.2945 36.3236V37.9662C50.2982 39.2762 47.4121 43.0364 47.4121 47.4707V60.353C47.4121 65.8758 51.8893 70.353 57.4121 70.353H73.3533C78.8761 70.353 83.3533 65.8758 83.3533 60.353V47.4706C83.3533 43.0364 80.4672 39.2762 76.4709 37.9662V36.3236ZM65.3827 30.2354C62.0301 30.2354 59.3104 32.9453 59.2945 36.2942H71.4709C71.455 32.9453 68.7353 30.2354 65.3827 30.2354ZM52.4121 47.4707C52.4121 44.7092 54.6507 42.4706 57.4121 42.4706H73.3533C76.1147 42.4706 78.3533 44.7092 78.3533 47.4706V60.353C78.3533 63.1144 76.1147 65.353 73.3533 65.353H57.4121C54.6507 65.353 52.4121 63.1144 52.4121 60.353V47.4707ZM67.2941 55.602C69.5054 54.9441 71.118 52.8957 71.118 50.4706C71.118 47.5143 68.7214 45.1177 65.7651 45.1177C62.8087 45.1177 60.4121 47.5143 60.4121 50.4706C60.4121 52.8954 62.0243 54.9436 64.2353 55.6018V60.4119C64.2353 61.2565 64.92 61.9413 65.7647 61.9413C66.6094 61.9413 67.2941 61.2565 67.2941 60.4119V55.602ZM8.89443 11.5917C10.0281 11.5917 10.9471 10.6758 10.9471 9.54608C10.9471 8.41633 10.0281 7.50049 8.89443 7.50049C7.76079 7.50049 6.8418 8.41633 6.8418 9.54608C6.8418 10.6758 7.76079 11.5917 8.89443 11.5917ZM19.158 9.54608C19.158 10.6758 18.239 11.5917 17.1054 11.5917C15.9717 11.5917 15.0527 10.6758 15.0527 9.54608C15.0527 8.41633 15.9717 7.50049 17.1054 7.50049C18.239 7.50049 19.158 8.41633 19.158 9.54608ZM25.3153 11.5917C26.449 11.5917 27.368 10.6758 27.368 9.54608C27.368 8.41633 26.449 7.50049 25.3153 7.50049C24.1817 7.50049 23.2627 8.41633 23.2627 9.54608C23.2627 10.6758 24.1817 11.5917 25.3153 11.5917Z" fill="url(#paint0_linear)"/>
<defs>
<linearGradient id="paint0_linear" x1="1.573" y1="77.0314" x2="82.5292" y2="-39.3409" gradientUnits="userSpaceOnUse">
<stop stop-color="#2E72CD"/>
<stop offset="1" stop-color="#00ABEE"/>
</linearGradient>
</defs>
</svg>
