<svg width="130" height="82" viewBox="0 0 130 82" fill="none" xmlns="http://www.w3.org/2000/svg">
<mask id="path-1-inside-1" fill="white">
<rect x="28.2949" y="59.6471" width="73.4118" height="22.1765" rx="3"/>
</mask>
<rect x="28.2949" y="59.6471" width="73.4118" height="22.1765" rx="3" fill="url(#paint0_linear)" fill-opacity="0.2" stroke="url(#paint1_linear)" stroke-width="8.94" mask="url(#path-1-inside-1)"/>
<path fill-rule="evenodd" clip-rule="evenodd" d="M121.053 4.47368H8.94737C6.47662 4.47368 4.47368 6.47662 4.47368 8.94737V13.9366H125.526V8.94737C125.526 6.47663 123.523 4.47368 121.053 4.47368ZM0 13.9366V18.4103V77.3498V81.8235H4.47368H125.526H130V77.3498V18.4103V13.9366V8.94737C130 4.00587 125.994 0 121.053 0H8.94737C4.00587 0 0 4.00588 0 8.94737V13.9366ZM125.526 77.3498V18.4103H4.47368V77.3498H125.526ZM32.7639 33.5288V43.7065H55.1769V33.5288H32.7639ZM31.2939 29.0588C29.6371 29.0588 28.2939 30.402 28.2939 32.0588V45.1765C28.2939 46.8333 29.6371 48.1765 31.2939 48.1765H56.6469C58.3037 48.1765 59.6469 46.8333 59.6469 45.1765V32.0588C59.6469 30.402 58.3037 29.0588 56.6469 29.0588H31.2939ZM71.5 31.0297C70.2656 31.0297 69.265 32.0304 69.265 33.2647C69.265 34.4991 70.2656 35.4997 71.5 35.4997H96.7353C97.9697 35.4997 98.9703 34.4991 98.9703 33.2647C98.9703 32.0304 97.9697 31.0297 96.7353 31.0297H71.5ZM71.5 42.5003C70.2656 42.5003 69.265 43.5009 69.265 44.7353C69.265 45.9697 70.2656 46.9703 71.5 46.9703H91C92.2344 46.9703 93.235 45.9697 93.235 44.7353C93.235 43.5009 92.2344 42.5003 91 42.5003H71.5ZM8.89443 11.5917C10.0281 11.5917 10.9471 10.6758 10.9471 9.54608C10.9471 8.41633 10.0281 7.50049 8.89443 7.50049C7.76079 7.50049 6.8418 8.41633 6.8418 9.54608C6.8418 10.6758 7.76079 11.5917 8.89443 11.5917ZM19.158 9.54608C19.158 10.6758 18.239 11.5917 17.1054 11.5917C15.9717 11.5917 15.0527 10.6758 15.0527 9.54608C15.0527 8.41633 15.9717 7.50049 17.1054 7.50049C18.239 7.50049 19.158 8.41633 19.158 9.54608ZM25.3153 11.5917C26.449 11.5917 27.368 10.6758 27.368 9.54608C27.368 8.41633 26.449 7.50049 25.3153 7.50049C24.1817 7.50049 23.2627 8.41633 23.2627 9.54608C23.2627 10.6758 24.1817 11.5917 25.3153 11.5917Z" fill="url(#paint2_linear)"/>
<defs>
<linearGradient id="paint0_linear" x1="29.1832" y1="80.5248" x2="43.2429" y2="38.415" gradientUnits="userSpaceOnUse">
<stop stop-color="#2E72CD"/>
<stop offset="1" stop-color="#00ABEE"/>
</linearGradient>
<linearGradient id="paint1_linear" x1="29.1832" y1="80.5248" x2="43.2429" y2="38.415" gradientUnits="userSpaceOnUse">
<stop stop-color="#2E72CD"/>
<stop offset="1" stop-color="#00ABEE"/>
</linearGradient>
<linearGradient id="paint2_linear" x1="1.573" y1="77.0314" x2="82.5292" y2="-39.3409" gradientUnits="userSpaceOnUse">
<stop stop-color="#2E72CD"/>
<stop offset="1" stop-color="#00ABEE"/>
</linearGradient>
</defs>
</svg>
