<svg width="130" height="82" viewBox="0 0 130 82" fill="none" xmlns="http://www.w3.org/2000/svg">
<path opacity="0.2" d="M9.37695 25.0294V72.5368H26.9853V25.0294H9.37695Z" fill="url(#paint0_linear)"/>
<path fill-rule="evenodd" clip-rule="evenodd" d="M8.94737 4.6502H121.053C123.523 4.6502 125.526 6.65314 125.526 9.12388V14.1131H4.47368V9.12389C4.47368 6.65314 6.47662 4.6502 8.94737 4.6502ZM0 18.5868V14.1131V9.12389C0 4.18239 4.00587 0.176514 8.94737 0.176514H121.053C125.994 0.176514 130 4.18239 130 9.12388V14.1131V18.5868V77.5264V82H125.526H4.47368H0V77.5264V18.5868ZM125.526 18.5868V77.5264H4.47368V18.5868H125.526ZM10.9471 9.72259C10.9471 10.8523 10.0281 11.7682 8.89443 11.7682C7.76079 11.7682 6.8418 10.8523 6.8418 9.72259C6.8418 8.59284 7.76079 7.677 8.89443 7.677C10.0281 7.677 10.9471 8.59284 10.9471 9.72259ZM17.1054 11.7682C18.239 11.7682 19.158 10.8523 19.158 9.72259C19.158 8.59284 18.239 7.677 17.1054 7.677C15.9717 7.677 15.0527 8.59284 15.0527 9.72259C15.0527 10.8523 15.9717 11.7682 17.1054 11.7682ZM27.368 9.72259C27.368 10.8523 26.449 11.7682 25.3153 11.7682C24.1817 11.7682 23.2627 10.8523 23.2627 9.72259C23.2627 8.59284 24.1817 7.677 25.3153 7.677C26.449 7.677 27.368 8.59284 27.368 9.72259ZM57.3529 28.9412C57.3529 27.8366 58.2483 26.9412 59.3529 26.9412H77.5294C78.6339 26.9412 79.5294 27.8366 79.5294 28.9412V32.5882C79.5294 33.6928 78.6339 34.5882 77.5294 34.5882H59.3529C58.2483 34.5882 57.3529 33.6928 57.3529 32.5882V28.9412ZM34.8818 26.9412C33.7773 26.9412 32.8818 27.8366 32.8818 28.9412V32.5882C32.8818 33.6928 33.7773 34.5882 34.8818 34.5882H53.0583C54.1629 34.5882 55.0583 33.6928 55.0583 32.5882V28.9412C55.0583 27.8366 54.1629 26.9412 53.0583 26.9412H34.8818ZM34.8823 51.4118C33.7777 51.4118 32.8823 52.3072 32.8823 53.4117V57.0588C32.8823 58.1634 33.7777 59.0588 34.8823 59.0588H53.0588C54.1633 59.0588 55.0588 58.1634 55.0588 57.0588V53.4118C55.0588 52.3072 54.1633 51.4118 53.0588 51.4118H34.8823ZM83.8235 26.9412C82.7189 26.9412 81.8235 27.8366 81.8235 28.9412V32.5882C81.8235 33.6928 82.7189 34.5882 83.8235 34.5882H102C103.105 34.5882 104 33.6928 104 32.5882V28.9412C104 27.8366 103.105 26.9412 102 26.9412H83.8235ZM57.3529 53.4117C57.3529 52.3072 58.2483 51.4118 59.3529 51.4118H77.5294C78.6339 51.4118 79.5294 52.3072 79.5294 53.4118V57.0588C79.5294 58.1634 78.6339 59.0588 77.5294 59.0588H59.3529C58.2483 59.0588 57.3529 58.1634 57.3529 57.0588V53.4117ZM46.3529 39.1765C45.2483 39.1765 44.3529 40.0719 44.3529 41.1765V44.8235C44.3529 45.9281 45.2483 46.8235 46.3529 46.8235H64.5294C65.6339 46.8235 66.5294 45.9281 66.5294 44.8235V41.1765C66.5294 40.0719 65.6339 39.1765 64.5294 39.1765H46.3529ZM68.8235 41.1765C68.8235 40.0719 69.7189 39.1765 70.8235 39.1765H88.9999C90.1045 39.1765 90.9999 40.0719 90.9999 41.1765V44.8235C90.9999 45.9281 90.1045 46.8235 88.9999 46.8235H70.8235C69.7189 46.8235 68.8235 45.9281 68.8235 44.8235V41.1765ZM70.8235 63.647C69.7189 63.647 68.8235 64.5425 68.8235 65.647V69.2941C68.8235 70.3987 69.7189 71.2941 70.8235 71.2941H88.9999C90.1045 71.2941 90.9999 70.3987 90.9999 69.2941V65.647C90.9999 64.5425 90.1045 63.647 88.9999 63.647H70.8235ZM32.8823 63.647H42.3529C43.4575 63.647 44.3529 64.5425 44.3529 65.647V69.2941C44.3529 70.3987 43.4575 71.2941 42.3529 71.2941H32.8823V63.647Z" fill="url(#paint1_linear)"/>
<defs>
<linearGradient id="paint0_linear" x1="9.59001" y1="69.7544" x2="39.8146" y2="59.6187" gradientUnits="userSpaceOnUse">
<stop stop-color="#2E72CD"/>
<stop offset="1" stop-color="#00ABEE"/>
</linearGradient>
<linearGradient id="paint1_linear" x1="1.573" y1="77.2079" x2="82.5292" y2="-39.1644" gradientUnits="userSpaceOnUse">
<stop stop-color="#2E72CD"/>
<stop offset="1" stop-color="#00ABEE"/>
</linearGradient>
</defs>
</svg>
