<svg width="130" height="82" viewBox="0 0 130 82" fill="none" xmlns="http://www.w3.org/2000/svg">
<path fill-rule="evenodd" clip-rule="evenodd" d="M8.94737 4.47368H121.053C123.523 4.47368 125.526 6.47663 125.526 8.94737V13.9366H4.47368V8.94737C4.47368 6.47662 6.47662 4.47368 8.94737 4.47368ZM0 18.4103V13.9366V8.94737C0 4.00588 4.00587 0 8.94737 0H121.053C125.994 0 130 4.00587 130 8.94737V13.9366V18.4103V77.3498V81.8235H125.526H4.47368H0V77.3498V18.4103ZM125.526 18.4103V77.3498H4.47368V18.4103H125.526ZM10.9471 9.54608C10.9471 10.6758 10.0281 11.5917 8.89443 11.5917C7.76079 11.5917 6.8418 10.6758 6.8418 9.54608C6.8418 8.41633 7.76079 7.50049 8.89443 7.50049C10.0281 7.50049 10.9471 8.41633 10.9471 9.54608ZM17.1054 11.5917C18.239 11.5917 19.158 10.6758 19.158 9.54608C19.158 8.41633 18.239 7.50049 17.1054 7.50049C15.9717 7.50049 15.0527 8.41633 15.0527 9.54608C15.0527 10.6758 15.9717 11.5917 17.1054 11.5917ZM27.367 9.54608C27.367 10.6758 26.448 11.5917 25.3144 11.5917C24.1807 11.5917 23.2617 10.6758 23.2617 9.54608C23.2617 8.41633 24.1807 7.50049 25.3144 7.50049C26.448 7.50049 27.367 8.41633 27.367 9.54608ZM82 33.1187H49C48.3469 33.1187 47.7894 33.5278 47.5699 34.1038L65.4992 46.6L83.4298 34.1029C83.21 33.5274 82.6527 33.1187 82 33.1187ZM47.47 60.3514V39.4828L64.2213 51.1579C64.9892 51.6931 66.0092 51.6931 66.7772 51.1579L83.53 39.4817V60.3514C83.53 61.1964 82.845 61.8814 82 61.8814H49C48.155 61.8814 47.47 61.1964 47.47 60.3514ZM49 28.6487C45.6863 28.6487 43 31.3349 43 34.6486V60.3514C43 63.6651 45.6863 66.3513 49 66.3513H82C85.3137 66.3513 88 63.6651 88 60.3514V34.6487C88 31.3349 85.3137 28.6487 82 28.6487H49Z" fill="url(#paint0_linear)"/>
<defs>
<linearGradient id="paint0_linear" x1="1.573" y1="77.0314" x2="82.5292" y2="-39.3409" gradientUnits="userSpaceOnUse">
<stop stop-color="#2E72CD"/>
<stop offset="1" stop-color="#00ABEE"/>
</linearGradient>
</defs>
</svg>
