<svg width="130" height="82" viewBox="0 0 130 82" fill="none" xmlns="http://www.w3.org/2000/svg">
<path fill-rule="evenodd" clip-rule="evenodd" d="M121.053 4.47368H8.94737C6.47662 4.47368 4.47368 6.47662 4.47368 8.94737V13.9366H125.526V8.94737C125.526 6.47663 123.523 4.47368 121.053 4.47368ZM0 13.9366V18.4103V77.3498V81.8235H4.47368H125.526H130V77.3498V18.4103V13.9366V8.94737C130 4.00587 125.994 0 121.053 0H8.94737C4.00587 0 0 4.00588 0 8.94737V13.9366ZM125.526 77.3498V18.4103H4.47368V77.3498H125.526ZM8.89443 11.5917C10.0281 11.5917 10.9471 10.6758 10.9471 9.54608C10.9471 8.41633 10.0281 7.50049 8.89443 7.50049C7.76079 7.50049 6.8418 8.41633 6.8418 9.54608C6.8418 10.6758 7.76079 11.5917 8.89443 11.5917ZM19.158 9.54608C19.158 10.6758 18.239 11.5917 17.1054 11.5917C15.9717 11.5917 15.0527 10.6758 15.0527 9.54608C15.0527 8.41633 15.9717 7.50049 17.1054 7.50049C18.239 7.50049 19.158 8.41633 19.158 9.54608ZM25.3153 11.5917C26.449 11.5917 27.368 10.6758 27.368 9.54608C27.368 8.41633 26.449 7.50049 25.3153 7.50049C24.1817 7.50049 23.2627 8.41633 23.2627 9.54608C23.2627 10.6758 24.1817 11.5917 25.3153 11.5917ZM63.2272 30.7524C63.9162 31.4302 63.9253 32.5382 63.2476 33.2272L54.6166 42.0012C56.5492 44.3233 57.3321 46.8383 57.1452 49.367C56.9292 52.2902 55.4371 54.9708 53.5066 57.1786C53.484 57.2044 53.4608 57.2295 53.4367 57.2539L43.6259 67.2272C43.2935 67.5652 42.8381 67.7538 42.364 67.7499C41.89 67.7461 41.4378 67.55 41.1109 67.2066L36.6514 62.5222L32.192 57.8377L27.7325 53.1533C27.0924 52.4809 27.0887 51.4256 27.7243 50.7488L37.0891 40.7754C37.0984 40.7655 37.1078 40.7558 37.1173 40.7461C39.327 38.4998 41.9342 37.0256 44.8496 36.9263C47.3174 36.8423 49.7533 37.7517 52.0897 39.579L60.7524 30.7728C61.4302 30.0838 62.5382 30.0747 63.2272 30.7524ZM38.3942 44.4986L49.7344 56.0267L42.399 63.4836L40.3792 61.3619L42.7077 59.0935C43.3999 58.4191 43.4144 57.3111 42.74 56.6188C42.0656 55.9265 40.9576 55.9121 40.2653 56.5865L37.9658 58.8267L35.8635 56.6183L37.4154 54.9531C38.0743 54.246 38.0353 53.1387 37.3282 52.4798C36.6212 51.8208 35.5138 51.8598 34.8549 52.5669L33.4459 54.0788L31.4083 51.9384L38.3942 44.4986ZM52.0319 53.3713L40.8979 42.0528C42.2717 40.9937 43.6385 40.4696 44.9687 40.4243C46.6991 40.3654 48.72 41.1051 50.9879 43.2459C53.1559 45.2924 53.7892 47.2897 53.6548 49.109C53.5512 50.5109 52.9793 51.9584 52.0319 53.3713ZM101.623 39.4946C102.172 38.8744 102.115 37.9264 101.495 37.3771C100.874 36.8278 99.9264 36.8853 99.3771 37.5054L85.0021 53.7353L78.6248 46.5076C78.0767 45.8864 77.1288 45.8271 76.5076 46.3752C75.8864 46.9233 75.8271 47.8712 76.3752 48.4924L83.8752 56.9924C84.1597 57.3148 84.5687 57.4996 84.9986 57.5C85.4285 57.5004 85.8379 57.3164 86.1229 56.9946L101.623 39.4946Z" fill="url(#paint0_linear)"/>
<path opacity="0.2" fill-rule="evenodd" clip-rule="evenodd" d="M93.4113 41.3444C92.518 40.5104 91.3186 40 90 40H76C73.2386 40 71 42.2386 71 45V59C71 61.7614 73.2386 64 76 64H90C92.7614 64 95 61.7614 95 59V50.0031L92 53.3031V59C92 60.1046 91.1046 61 90 61H76C74.8954 61 74 60.1046 74 59V45C74 43.8954 74.8954 43 76 43H90C90.5415 43 91.0327 43.2152 91.3929 43.5647L93.4113 41.3444Z" fill="url(#paint1_linear)"/>
<defs>
<linearGradient id="paint0_linear" x1="1.573" y1="77.0314" x2="82.5292" y2="-39.3409" gradientUnits="userSpaceOnUse">
<stop stop-color="#2E72CD"/>
<stop offset="1" stop-color="#00ABEE"/>
</linearGradient>
<linearGradient id="paint1_linear" x1="71.2904" y1="62.5944" x2="96.4904" y2="39.7944" gradientUnits="userSpaceOnUse">
<stop stop-color="#2E72CD"/>
<stop offset="1" stop-color="#00ABEE"/>
</linearGradient>
</defs>
</svg>
