<svg width="130" height="82" viewBox="0 0 130 82" fill="none" xmlns="http://www.w3.org/2000/svg">
<path opacity="0.2" fill-rule="evenodd" clip-rule="evenodd" d="M79.5295 41.2941H27.5295V47.4118H79.5295V41.2941ZM79.5293 52.7647H27.5293V58.8824H79.5293V52.7647Z" fill="url(#paint0_linear)"/>
<path fill-rule="evenodd" clip-rule="evenodd" d="M8.94737 4.47368H121.053C123.523 4.47368 125.526 6.47663 125.526 8.94737V13.9366H4.47368V8.94737C4.47368 6.47662 6.47662 4.47368 8.94737 4.47368ZM130 18.4103V13.9366V8.94737C130 4.00587 125.994 0 121.053 0H8.94737C4.00587 0 0 4.00588 0 8.94737V13.9366V18.4103V77.3498V81.8235H4.47368H125.526H130V77.3498V18.4103ZM4.47368 77.3498V18.4103H125.526V77.3498H4.47368ZM27.5293 35.1765L79.5293 35.1765V30.1765L27.5293 30.1765V35.1765ZM8.89443 11.5917C10.0281 11.5917 10.9471 10.6758 10.9471 9.54608C10.9471 8.41633 10.0281 7.50049 8.89443 7.50049C7.76079 7.50049 6.8418 8.41633 6.8418 9.54608C6.8418 10.6758 7.76079 11.5917 8.89443 11.5917ZM19.158 9.54608C19.158 10.6758 18.239 11.5917 17.1054 11.5917C15.9717 11.5917 15.0527 10.6758 15.0527 9.54608C15.0527 8.41633 15.9717 7.50049 17.1054 7.50049C18.239 7.50049 19.158 8.41633 19.158 9.54608ZM25.3153 11.5917C26.449 11.5917 27.368 10.6758 27.368 9.54608C27.368 8.41633 26.449 7.50049 25.3153 7.50049C24.1817 7.50049 23.2627 8.41633 23.2627 9.54608C23.2627 10.6758 24.1817 11.5917 25.3153 11.5917Z" fill="url(#paint1_linear)"/>
<defs>
<linearGradient id="paint0_linear" x1="28.1585" y1="57.8523" x2="40.3339" y2="25.2835" gradientUnits="userSpaceOnUse">
<stop stop-color="#2E72CD"/>
<stop offset="1" stop-color="#00ABEE"/>
</linearGradient>
<linearGradient id="paint1_linear" x1="1.573" y1="77.0314" x2="82.5292" y2="-39.3409" gradientUnits="userSpaceOnUse">
<stop stop-color="#2E72CD"/>
<stop offset="1" stop-color="#00ABEE"/>
</linearGradient>
</defs>
</svg>
