<svg width="130" height="82" viewBox="0 0 130 82" fill="none" xmlns="http://www.w3.org/2000/svg">
<path fill-rule="evenodd" clip-rule="evenodd" d="M8.94737 4.47368H121.053C123.523 4.47368 125.526 6.47663 125.526 8.94737V13.9366H4.47368V8.94737C4.47368 6.47662 6.47662 4.47368 8.94737 4.47368ZM0 18.4103V13.9366V8.94737C0 4.00588 4.00587 0 8.94737 0H121.053C125.994 0 130 4.00587 130 8.94737V13.9366V18.4103V77.3498V81.8235H125.526H4.47368H0V77.3498V18.4103ZM125.526 18.4103V77.3498H4.47368V18.4103H125.526ZM10.9471 9.54608C10.9471 10.6758 10.0281 11.5917 8.89443 11.5917C7.76079 11.5917 6.8418 10.6758 6.8418 9.54608C6.8418 8.41633 7.76079 7.50049 8.89443 7.50049C10.0281 7.50049 10.9471 8.41633 10.9471 9.54608ZM17.1054 11.5917C18.239 11.5917 19.158 10.6758 19.158 9.54608C19.158 8.41633 18.239 7.50049 17.1054 7.50049C15.9717 7.50049 15.0527 8.41633 15.0527 9.54608C15.0527 10.6758 15.9717 11.5917 17.1054 11.5917ZM27.368 9.54608C27.368 10.6758 26.449 11.5917 25.3153 11.5917C24.1817 11.5917 23.2627 10.6758 23.2627 9.54608C23.2627 8.41633 24.1817 7.50049 25.3153 7.50049C26.449 7.50049 27.368 8.41633 27.368 9.54608ZM65.5006 28.265C66.735 28.265 67.7356 29.2657 67.7356 30.5V34.065H73.0006C74.235 34.065 75.2356 35.0656 75.2356 36.3C75.2356 37.5344 74.235 38.535 73.0006 38.535H67.7356V45.565H68.5006C72.9106 45.565 76.4856 49.14 76.4856 53.55C76.4856 57.96 72.9106 61.535 68.5006 61.535H67.7356V64C67.7356 65.2344 66.735 66.235 65.5006 66.235C64.2663 66.235 63.2656 65.2344 63.2656 64V61.535H57.5006C56.2663 61.535 55.2656 60.5344 55.2656 59.3C55.2656 58.0656 56.2663 57.065 57.5006 57.065H63.2656V50.035H61.7506C57.3406 50.035 53.7656 46.46 53.7656 42.05C53.7656 37.64 57.3406 34.065 61.7506 34.065H63.2656V30.5C63.2656 29.2657 64.2663 28.265 65.5006 28.265ZM61.7506 38.535H63.2656V45.565H61.7506C59.8093 45.565 58.2356 43.9913 58.2356 42.05C58.2356 40.1087 59.8093 38.535 61.7506 38.535ZM67.7356 57.065V50.035H68.5006C70.4419 50.035 72.0156 51.6087 72.0156 53.55C72.0156 55.4913 70.4419 57.065 68.5006 57.065H67.7356Z" fill="url(#paint0_linear)"/>
<defs>
<linearGradient id="paint0_linear" x1="1.573" y1="77.0314" x2="82.5292" y2="-39.3409" gradientUnits="userSpaceOnUse">
<stop stop-color="#2E72CD"/>
<stop offset="1" stop-color="#00ABEE"/>
</linearGradient>
</defs>
</svg>
