<svg width="15" height="13" viewBox="0 0 15 13" fill="none" xmlns="http://www.w3.org/2000/svg">
<path d="M7.50348 8.0725C9.60015 8.0725 11.3143 6.35833 11.3143 4.2475C11.3143 2.13667 9.60015 0.422499 7.50348 0.422499C5.40682 0.422499 3.69265 2.13667 3.69265 4.2475C3.69265 6.35833 5.40682 8.0725 7.50348 8.0725ZM7.50348 1.54165C8.97682 1.54165 10.181 2.74582 10.181 4.23332C10.181 5.72082 8.97682 6.92499 7.50348 6.92499C6.03015 6.92499 4.82598 5.72082 4.82598 4.23332C4.82598 2.74582 6.03015 1.54165 7.50348 1.54165ZM9.27432 8.44081C9.09015 8.38415 8.87765 8.42665 8.73598 8.55415L7.50348 9.60247L6.27098 8.55415C6.11515 8.42665 5.91682 8.38415 5.73265 8.44081C4.93932 8.69581 0.986816 10.0558 0.986816 12.025C0.986816 12.3367 1.24182 12.5917 1.55348 12.5917H13.4535C13.7651 12.5917 14.0201 12.3367 14.0201 12.025C14.0201 10.0558 10.0676 8.69581 9.27432 8.44081ZM2.41765 11.4583C3.04098 10.7925 4.54265 10.0558 5.78932 9.63083L7.13515 10.7783C7.34765 10.9625 7.65932 10.9625 7.87182 10.7783L9.21765 9.63083C10.4643 10.07 11.966 10.8067 12.5893 11.4583H2.41765Z" fill="#444444"/>
</svg>
