<svg width="80" height="80" viewBox="0 0 80 80" fill="none" xmlns="http://www.w3.org/2000/svg">
<path d="M40 0C17.9089 0 0 17.9089 0 40C0 62.0911 17.9089 80 40 80C62.0911 80 80 62.0911 80 40C79.9753 17.9193 62.0807 0.0247397 40 0ZM40 77.3333C19.3815 77.3333 2.66667 60.6185 2.66667 40C2.66667 19.3815 19.3815 2.66667 40 2.66667C60.6185 2.66667 77.3333 19.3815 77.3333 40C77.3099 60.6087 60.6087 77.3099 40 77.3333Z" fill="url(#paint0_linear)"/>
<path d="M21.3334 34.6666H26.6667C27.403 34.6666 28 35.2636 28 36H30.6667C30.6667 33.791 28.8757 32 26.6667 32H25.3334V30.6666H22.6667V32H21.3334C19.1244 32 17.3334 33.791 17.3334 36V37.3333C17.3334 39.5423 19.1244 41.3333 21.3334 41.3333H26.6667C27.403 41.3333 28 41.9303 28 42.6666V44C28 44.7363 27.403 45.3333 26.6667 45.3333H21.3334C20.597 45.3333 20 44.7363 20 44H17.3334C17.3334 46.2089 19.1244 48 21.3334 48H22.6667V49.3333H25.3334V48H26.6667C28.8757 48 30.6667 46.2089 30.6667 44V42.6666C30.6667 40.4576 28.8757 38.6666 26.6667 38.6666H21.3334C20.597 38.6666 20 38.0696 20 37.3333V36C20 35.2636 20.597 34.6666 21.3334 34.6666Z" fill="url(#paint1_linear)"/>
<path d="M69.3334 30.6667H66.6667V26.6667C66.6667 25.9304 66.0697 25.3334 65.3334 25.3334H38.6667C37.9304 25.3334 37.3334 25.9304 37.3334 26.6667V32C37.3334 32.7364 37.9304 33.3334 38.6667 33.3334H41.3334V36H40C39.2637 36 38.6667 36.597 38.6667 37.3334V42.6667C38.6667 43.403 39.2637 44 40 44V46.6667H37.056C38.1185 44.6055 38.6706 42.3191 38.6667 40C38.6667 31.8998 32.1003 25.3334 24 25.3334C15.8998 25.3334 9.33337 31.8998 9.33337 40C9.33337 48.1003 15.8998 54.6667 24 54.6667C26.319 54.6706 28.6049 54.1185 30.6667 53.0573V53.3334C30.6667 54.0697 31.2637 54.6667 32 54.6667H58.6667C59.403 54.6667 60 54.0697 60 53.3334V49.3334H68C68.7364 49.3334 69.3334 48.7364 69.3334 48V42.6667C69.3334 41.9304 68.7364 41.3334 68 41.3334V38.6667H69.3334C70.0697 38.6667 70.6667 38.0697 70.6667 37.3334V32C70.6667 31.2637 70.0697 30.6667 69.3334 30.6667ZM40 28H64V30.6667H40V28ZM12 40C12 33.3724 17.3724 28 24 28C30.6276 28 36 33.3724 36 40C36.0059 42.6029 35.1556 45.1361 33.5801 47.2077C32.9108 48.1166 32.1088 48.9193 31.1999 49.5892C29.1289 51.1595 26.599 52.0066 24 52C17.3757 51.9929 12.0072 46.6244 12 40ZM57.3334 52H33.3334V51.2611C34.0385 50.6843 34.6843 50.0385 35.2611 49.3334H57.3334V52ZM66.6667 46.6667H42.6667V44H66.6667V46.6667ZM65.3334 41.3334H41.3334V38.6667H65.3334V41.3334ZM68 36H44V33.3334H68V36Z" fill="url(#paint2_linear)"/>
<defs>
<linearGradient id="paint0_linear" x1="0.968002" y1="75.3147" x2="84.968" y2="-0.685336" gradientUnits="userSpaceOnUse">
<stop stop-color="#2E72CD"/>
<stop offset="1" stop-color="#00ABEE"/>
</linearGradient>
<linearGradient id="paint1_linear" x1="17.4947" y1="48.2401" x2="35.4542" y2="36.6336" gradientUnits="userSpaceOnUse">
<stop stop-color="#2E72CD"/>
<stop offset="1" stop-color="#00ABEE"/>
</linearGradient>
<linearGradient id="paint2_linear" x1="10.0755" y1="52.9488" x2="35.6537" y2="4.56069" gradientUnits="userSpaceOnUse">
<stop stop-color="#2E72CD"/>
<stop offset="1" stop-color="#00ABEE"/>
</linearGradient>
</defs>
</svg>
