<svg width="80" height="80" viewBox="0 0 80 80" fill="none" xmlns="http://www.w3.org/2000/svg">
<path d="M40 0C17.9089 0 0 17.9089 0 40C0 62.0911 17.9089 80 40 80C62.0911 80 80 62.0911 80 40C79.9753 17.9193 62.0807 0.0247397 40 0ZM40 77.3333C19.3815 77.3333 2.66667 60.6185 2.66667 40C2.66667 19.3815 19.3815 2.66667 40 2.66667C60.6185 2.66667 77.3333 19.3815 77.3333 40C77.3099 60.6087 60.6087 77.3099 40 77.3333Z" fill="url(#paint0_linear)"/>
<path d="M53.3334 20.0001C51.2565 19.9909 49.2956 20.9545 48.0332 22.6036C46.7709 24.2527 46.3529 26.3979 46.9043 28.3998L34.3373 34.6798C32.1387 31.4883 28.1986 29.9844 24.4323 30.8992C20.666 31.8139 17.8542 34.9571 17.364 38.8015C16.8737 42.6465 18.8067 46.3946 22.2227 48.2253C25.6394 50.0554 29.8308 49.5886 32.7598 47.0508L39.8373 53.1843C37.6719 56.7468 38.5977 61.3751 41.9675 63.8301C45.3373 66.2852 50.0261 65.7488 52.7539 62.5951C55.4818 59.4421 55.3379 54.7247 52.4232 51.7436C49.5085 48.7624 44.7956 48.5124 41.5814 51.168L34.515 45.0346C36.0463 42.6706 36.416 39.737 35.5202 37.0665L48.1081 30.7735C49.3581 32.3913 51.2884 33.3373 53.3334 33.3334C57.015 33.3334 60 30.3484 60 26.6667C60 22.9851 57.015 20.0001 53.3334 20.0001ZM26.6667 46.6667C23.3809 46.6654 20.586 44.2696 20.0821 41.0229C19.5782 37.7755 21.515 34.6459 24.6459 33.6479C27.7767 32.6505 31.1673 34.0827 32.6348 37.0229C33.6615 39.0899 33.5476 41.5417 32.3327 43.5046C31.1179 45.4675 28.9753 46.6635 26.6667 46.6667ZM46.6667 52.0001C49.1758 51.9988 51.3464 53.7462 51.8809 56.1973C52.4154 58.6485 51.1693 61.1407 48.8874 62.1837C46.6055 63.2273 43.905 62.5385 42.4011 60.5307C40.8972 58.5229 40.9961 55.7377 42.6387 53.8412C43.6511 52.6726 45.1205 52.0007 46.6667 52.0001ZM53.3334 30.6667C51.8132 30.6719 50.4239 29.8067 49.7572 28.4402C49.4746 27.892 49.3288 27.2833 49.3334 26.6667C49.3334 24.4577 51.1244 22.6667 53.3334 22.6667C55.5424 22.6667 57.3334 24.4577 57.3334 26.6667C57.3334 28.8757 55.5424 30.6667 53.3334 30.6667Z" fill="url(#paint1_linear)"/>
<defs>
<linearGradient id="paint0_linear" x1="0.230668" y1="79.308" x2="76.6747" y2="3.752" gradientUnits="userSpaceOnUse">
<stop stop-color="#2E72CD"/>
<stop offset="1" stop-color="#00ABEE"/>
</linearGradient>
<linearGradient id="paint1_linear" x1="17.4117" y1="64.9757" x2="60.654" y2="24.7386" gradientUnits="userSpaceOnUse">
<stop stop-color="#2E72CD"/>
<stop offset="1" stop-color="#00ABEE"/>
</linearGradient>
</defs>
</svg>
