<svg width="24" height="24" viewBox="0 0 24 24" fill="none" xmlns="http://www.w3.org/2000/svg">
<mask id="mask0" mask-type="alpha" maskUnits="userSpaceOnUse" x="2" y="2" width="20" height="20">
<rect x="2" y="2" width="20" height="20" rx="4" fill="#C4C4C4"/>
</mask>
<g mask="url(#mask0)">
<path fill-rule="evenodd" clip-rule="evenodd" d="M2 2V22H22V2H2ZM16.9933 13.0649C17.4524 13.5128 17.9379 13.9345 18.35 14.4297C18.5321 14.6485 18.7043 14.8742 18.8356 15.1278C19.0219 15.491 18.853 15.889 18.5285 15.9109L16.512 15.9101C15.9916 15.9528 15.5768 15.743 15.227 15.3869C14.9488 15.1034 14.6888 14.7999 14.4203 14.5068C14.311 14.3861 14.1955 14.2732 14.0582 14.1832C13.7827 14.0047 13.5437 14.0589 13.3863 14.3458C13.2262 14.638 13.1885 14.9625 13.1738 15.288C13.1518 15.763 13.0085 15.8873 12.5317 15.9101C11.5116 15.9574 10.5441 15.8024 9.64558 15.2888C8.85209 14.8358 8.23802 14.1953 7.70343 13.471C6.66158 12.0589 5.86365 10.5087 5.14721 8.91393C4.98527 8.55451 5.10356 8.36189 5.49881 8.35495C6.15771 8.34193 6.81635 8.34352 7.47433 8.35407C7.74198 8.35855 7.91956 8.51152 8.02193 8.76435C8.37802 9.63934 8.81358 10.472 9.36031 11.2447C9.50655 11.4502 9.65525 11.6549 9.86598 11.8001C10.0996 11.9611 10.2781 11.9085 10.3882 11.6469C10.4583 11.4807 10.489 11.304 10.5038 11.1264C10.5562 10.5184 10.5625 9.90967 10.4722 9.30343C10.4162 8.92448 10.2019 8.67947 9.82409 8.60782C9.63147 8.57108 9.66035 8.50031 9.7531 8.38989C9.91591 8.20022 10.0691 8.08193 10.3726 8.08193H12.6516C13.011 8.15204 13.0916 8.31393 13.1404 8.67521L13.1422 11.2079C13.138 11.3479 13.2124 11.7624 13.4634 11.8542C13.6645 11.9207 13.7984 11.7588 13.9191 11.6312C14.4649 11.052 14.8544 10.3672 15.2024 9.65855C15.3564 9.34703 15.4895 9.02343 15.6189 8.69956C15.7143 8.45991 15.863 8.34189 16.1334 8.34615L18.3275 8.34884C18.3922 8.34884 18.4587 8.34884 18.5226 8.35934C18.8916 8.42317 18.9931 8.58242 18.8784 8.94365C18.6993 9.50958 18.3483 9.98211 18.0063 10.4553C17.6397 10.9619 17.2496 11.4508 16.8857 11.9601C16.5533 12.4264 16.5795 12.6609 16.9933 13.0649Z" fill="url(#paint0_linear)"/>
</g>
<defs>
<linearGradient id="paint0_linear" x1="2.242" y1="20.8287" x2="23.242" y2="1.82867" gradientUnits="userSpaceOnUse">
<stop stop-color="#2E72CD"/>
<stop offset="1" stop-color="#00ABEE"/>
</linearGradient>
</defs>
</svg>
