<svg width="80" height="81" viewBox="0 0 80 81" fill="none" xmlns="http://www.w3.org/2000/svg">
<g clip-path="url(#clip0)">
<path d="M40 0.688354C17.9084 0.688354 0 18.538 0 40.557C0 62.5761 17.9084 80.4257 40 80.4257C62.0916 80.4257 80 62.5761 80 40.557C79.9752 18.5487 62.0808 0.713045 40 0.688354ZM40 77.768C19.3814 77.768 2.66641 61.108 2.66641 40.557C2.66641 20.0061 19.3814 3.34601 40 3.34601C60.6186 3.34601 77.3336 20.0061 77.3336 40.557C77.3094 61.0985 60.6091 77.7439 40 77.768Z" fill="url(#paint0_linear)"/>
<path d="M65.9143 51.6854L63.1852 48.9874C62.7466 48.5538 62.0386 48.5568 61.6036 48.9939C61.1686 49.4309 61.1716 50.1367 61.6101 50.5702L64.3392 53.2682C64.5572 53.4838 64.842 53.5915 65.1266 53.5915C65.4143 53.5915 65.702 53.4815 65.9206 53.2617C66.3557 52.8247 66.3528 52.1189 65.9143 51.6854Z" fill="url(#paint1_linear)"/>
<path d="M60.4046 46.2269C59.9679 45.7916 59.26 45.7916 58.8231 46.2269L58.8212 46.2288C58.3845 46.6641 58.3855 47.369 58.8222 47.8043C59.0402 48.0217 59.3263 48.1303 59.6123 48.1303C59.899 48.1303 60.1859 48.0212 60.4045 47.8034C60.8412 47.3681 60.8412 46.6623 60.4046 46.2269Z" fill="url(#paint2_linear)"/>
<path d="M50.8715 51.3665L61.7201 40.5537C63.3631 38.9159 63.3631 36.2511 61.72 34.6134C61.1406 34.0359 60.433 33.663 59.6876 33.4929C59.9432 32.9452 60.0785 32.3442 60.0785 31.7223C60.0785 30.6003 59.6401 29.5455 58.8443 28.7523C58.22 28.13 57.4341 27.7281 56.5812 27.5833C57.0614 26.125 56.7219 24.4549 55.5606 23.2974C54.922 22.6611 54.1279 22.2733 53.299 22.1315C53.4379 21.7115 53.5111 21.268 53.5111 20.8128C53.5111 19.6908 53.0727 18.6361 52.2769 17.8428C51.4809 17.0496 50.4226 16.6126 49.2971 16.6126C48.5823 16.6126 47.895 16.7894 47.2844 17.1212L47.1765 17.0057C45.7742 15.5037 43.7893 14.6423 41.731 14.6423H32.9495C32.332 14.6423 31.8312 15.1415 31.8312 15.757V17.2186C31.8312 17.8036 31.9305 18.3731 32.1204 18.9085C31.6146 18.6991 31.0672 18.5891 30.5031 18.5891C29.3774 18.5891 28.3191 19.0261 27.5231 19.8193C26.3612 20.9774 26.0221 22.6488 26.5035 24.1076C25.6739 24.249 24.8786 24.6371 24.2396 25.2739C23.4437 26.0673 23.0053 27.1221 23.0053 28.244C23.0053 28.6982 23.0783 29.1411 23.2166 29.5602C22.3646 29.7054 21.5795 30.107 20.9558 30.7288C19.6726 32.0078 19.3916 33.9134 20.1129 35.4668C19.3492 35.6408 18.6477 36.0241 18.0799 36.5899C16.4369 38.2276 16.4369 40.8923 18.0799 42.5301L20.3109 44.7537L14.3275 50.7172C13.8908 51.1525 13.8908 51.8582 14.3275 52.2936C14.5459 52.5112 14.8321 52.6202 15.1183 52.6202C15.4044 52.6202 15.6906 52.5113 15.909 52.2936L21.9984 46.2242C22.6262 46.5813 23.3386 46.7723 24.0811 46.7723C25.2067 46.7723 26.265 46.3354 27.0609 45.542C27.9257 44.6802 28.3346 43.5338 28.2891 42.4025C28.3458 42.4048 28.4025 42.4065 28.4592 42.4065C29.5382 42.4064 30.6177 41.9969 31.439 41.1783C32.2349 40.3849 32.6733 39.3302 32.6733 38.2083C32.6733 38.1515 32.6714 38.0952 32.6691 38.0388C32.7251 38.041 32.7812 38.0428 32.8373 38.0428C33.9164 38.0428 34.9956 37.6333 35.8171 36.8146C36.6129 36.0212 37.0513 34.9664 37.0513 33.8446C37.0513 33.7878 37.0494 33.7315 37.0472 33.6751C37.1032 33.6773 37.1592 33.6791 37.2154 33.6791C38.2945 33.6791 39.3737 33.2696 40.1952 32.4509C41.739 30.9121 41.8319 28.4667 40.4747 26.8184L47.8981 19.4194C48.2717 19.0469 48.7681 18.842 49.2964 18.842C49.8247 18.842 50.3212 19.0469 50.6948 19.4194C51.0683 19.7917 51.2739 20.2865 51.2739 20.8131C51.2739 21.3395 51.0683 21.8345 50.6947 22.2067L49.6002 23.2976L45.629 27.2558C45.1922 27.6911 45.1922 28.3969 45.629 28.8323C45.8473 29.0498 46.1336 29.1588 46.4197 29.1588C46.7058 29.1588 46.992 29.0499 47.2104 28.8323L51.1816 24.8741C51.9525 24.1056 53.2071 24.1055 53.9783 24.874C54.7493 25.6426 54.7493 26.893 53.9783 27.6616L52.8837 28.7526L50.007 31.6197C49.5703 32.055 49.5703 32.7608 50.007 33.1962C50.2254 33.4137 50.5116 33.5227 50.7978 33.5227C51.0839 33.5227 51.3701 33.4138 51.5885 33.1962L54.4651 30.329C54.8386 29.9566 55.3352 29.7517 55.8633 29.7517C56.3916 29.7517 56.8882 29.9566 57.2617 30.329C57.6353 30.7014 57.8409 31.1962 57.8409 31.7227C57.8409 32.2492 57.6353 32.7442 57.2616 33.1164L55.7593 34.6138L54.385 35.9836C53.9483 36.4189 53.9483 37.1246 54.385 37.56C54.6034 37.7776 54.8896 37.8865 55.1757 37.8865C55.4618 37.8865 55.7481 37.7777 55.9664 37.56L57.3417 36.1893C58.1128 35.422 59.3666 35.4221 60.1373 36.1903C60.9085 36.9588 60.9085 38.2093 60.1373 38.9779L49.2888 49.7907C46.5647 52.506 42.9442 54.0779 39.0943 54.2172C38.8113 54.2274 38.5425 54.3443 38.3426 54.5445L28.321 64.5702C27.8851 65.0062 27.8863 65.712 28.3239 66.1465C28.5421 66.3631 28.8276 66.4716 29.1132 66.4716C29.4 66.4716 29.687 66.3623 29.9053 66.1436L37.2765 58.7695C39.1489 59.9667 41.3508 60.536 43.5898 60.3884L49.3589 66.1387C49.5773 66.3562 49.8635 66.4652 50.1496 66.4652C50.4358 66.4652 50.722 66.3563 50.9403 66.1387C51.377 65.7034 51.377 64.9977 50.9403 64.5623L44.8065 58.4479C44.5743 58.2166 44.2516 58.0983 43.9243 58.1251L43.5698 58.154C41.9332 58.2878 40.3156 57.9305 38.9032 57.1416L39.6219 56.4227C43.8724 56.1614 47.8519 54.3763 50.8715 51.3665ZM25.4795 43.9658C25.106 44.3382 24.6093 44.5432 24.0812 44.5432C23.5529 44.5432 23.0564 44.3382 22.683 43.9658L19.6612 40.9541C18.8902 40.1856 18.8902 38.9351 19.6612 38.1665C20.0348 37.794 20.5314 37.5891 21.0596 37.5891C21.5878 37.5891 22.0844 37.794 22.4579 38.1665L25.4796 41.1782C26.2505 41.9467 26.2505 43.1972 25.4795 43.9658ZM29.8578 39.6018C29.0867 40.3703 27.8318 40.3703 27.061 39.6018L24.0393 36.59L22.5368 35.0925C21.7658 34.324 21.7658 33.0735 22.5368 32.305C22.9104 31.9326 23.407 31.7276 23.9351 31.7276C24.4634 31.7276 24.9599 31.9326 25.3334 32.305L29.8575 36.8143C30.2311 37.1867 30.4369 37.6816 30.4369 38.208C30.4369 38.7345 30.2313 39.2295 29.8578 39.6018ZM34.2359 35.238C33.4648 36.0064 32.21 36.0065 31.4391 35.238L25.8204 29.6378C25.4469 29.2654 25.2412 28.7706 25.2412 28.2441C25.2412 27.7176 25.4469 27.2226 25.8205 26.8504C26.206 26.4661 26.7125 26.274 27.2188 26.274C27.7248 26.274 28.2308 26.4659 28.6162 26.8495L31.177 29.402L34.2357 32.4505C34.6091 32.8229 34.8148 33.3177 34.8148 33.8442C34.8151 34.3708 34.6095 34.8658 34.2359 35.238ZM38.6141 30.8742C37.8431 31.6427 36.5885 31.6427 35.8174 30.8742L30.1987 25.2739L30.1968 25.2722L29.1041 24.183C28.3331 23.4144 28.3331 22.1641 29.1041 21.3955C29.4896 21.0111 29.9961 20.819 30.5025 20.819C31.0089 20.819 31.5154 21.0111 31.9008 21.3955L38.6139 28.0865C38.9875 28.4588 39.1932 28.9537 39.1932 29.4802C39.1933 30.0069 38.9878 30.502 38.6141 30.8742ZM38.9081 25.2273L35.8366 22.1657C36.1848 22.2398 36.543 22.2792 36.9075 22.2791C36.9156 22.2791 36.9239 22.2791 36.9322 22.2791L40.0011 22.2647C40.6186 22.2618 41.117 21.7604 41.1141 21.1448C41.1112 20.531 40.6111 20.0354 39.9959 20.0354H39.9906L36.9217 20.0498C36.917 20.0498 36.9125 20.0498 36.9078 20.0498C36.1516 20.0498 35.4404 19.7573 34.9042 19.2254C34.3646 18.69 34.0675 17.9774 34.0675 17.2185V16.8715H41.7306C43.1702 16.8715 44.5583 17.4738 45.5391 18.5243L45.5846 18.573L38.9081 25.2273Z" fill="url(#paint3_linear)"/>
</g>
<defs>
<linearGradient id="paint0_linear" x1="-16.8358" y1="86.268" x2="93.2299" y2="-10.2468" gradientUnits="userSpaceOnUse">
<stop stop-color="#2E72CD"/>
<stop offset="1" stop-color="#00ABEE"/>
</linearGradient>
<linearGradient id="paint1_linear" x1="61.3394" y1="53.3029" x2="66.517" y2="48.5819" gradientUnits="userSpaceOnUse">
<stop stop-color="#2E72CD"/>
<stop offset="1" stop-color="#00ABEE"/>
</linearGradient>
<linearGradient id="paint2_linear" x1="58.5212" y1="47.9997" x2="60.8634" y2="45.873" gradientUnits="userSpaceOnUse">
<stop stop-color="#2E72CD"/>
<stop offset="1" stop-color="#00ABEE"/>
</linearGradient>
<linearGradient id="paint3_linear" x1="14.5923" y1="63.4361" x2="68.617" y2="17.2698" gradientUnits="userSpaceOnUse">
<stop stop-color="#2E72CD"/>
<stop offset="1" stop-color="#00ABEE"/>
</linearGradient>
<clipPath id="clip0">
<rect width="80" height="79.7373" fill="white" transform="translate(0 0.688354)"/>
</clipPath>
</defs>
</svg>
