<svg width="18" height="20" viewBox="0 0 18 20" fill="none" xmlns="http://www.w3.org/2000/svg">
<path d="M17.6786 1.296H15.4286V0.324C15.4286 0.144828 15.2849 0 15.1071 0H12.8571C12.6794 0 12.5357 0.144828 12.5357 0.324V1.296H5.46429V0.324C5.46429 0.144828 5.32061 0 5.14286 0H2.89286C2.71511 0 2.57143 0.144828 2.57143 0.324V1.296H0.321429C0.143679 1.296 0 1.44083 0 1.62V5.184V19.116C0 19.2952 0.143679 19.44 0.321429 19.44H17.6786C17.8563 19.44 18 19.2952 18 19.116V5.184V1.62C18 1.44083 17.8563 1.296 17.6786 1.296ZM13.1786 0.648H14.7857V1.62V2.592H13.1786V1.62V0.648ZM3.21429 0.648H4.82143V1.62V2.592H3.21429V1.62V0.648ZM0.642857 1.944H2.57143V2.916C2.57143 3.09517 2.71511 3.24 2.89286 3.24H5.14286C5.32061 3.24 5.46429 3.09517 5.46429 2.916V1.944H12.5357V2.916C12.5357 3.09517 12.6794 3.24 12.8571 3.24H15.1071C15.2849 3.24 15.4286 3.09517 15.4286 2.916V1.944H17.3571V4.86H0.642857V1.944ZM0.642857 18.792V5.508H17.3571V18.792H0.642857Z" fill="#423D33"/>
<path d="M11.5711 7.4519H9.32115H8.67829H6.42829H5.78544H2.89258V10.3679V11.0159V13.2839V13.9319V16.8479H5.78544H6.42829H8.67829H9.32115H11.5711H12.214H15.1069V13.9319V13.2839V11.0159V10.3679V7.4519H12.214H11.5711ZM9.32115 8.0999H11.5711V10.3679H9.32115V8.0999ZM11.5711 13.2839H9.32115V11.0159H11.5711V13.2839ZM6.42829 11.0159H8.67829V13.2839H6.42829V11.0159ZM6.42829 8.0999H8.67829V10.3679H6.42829V8.0999ZM3.53544 8.0999H5.78544V10.3679H3.53544V8.0999ZM3.53544 11.0159H5.78544V13.2839H3.53544V11.0159ZM5.78544 16.1999H3.53544V13.9319H5.78544V16.1999ZM8.67829 16.1999H6.42829V13.9319H8.67829V16.1999ZM11.5711 16.1999H9.32115V13.9319H11.5711V16.1999ZM14.464 16.1999H12.214V13.9319H14.464V16.1999ZM14.464 13.2839H12.214V11.0159H14.464V13.2839ZM14.464 8.0999V10.3679H12.214V8.0999H14.464Z" fill="#7FBA00"/>
</svg>
