<svg width="80" height="80" viewBox="0 0 80 80" fill="none" xmlns="http://www.w3.org/2000/svg">
<path d="M40 0C17.9089 0 0 17.9089 0 40C0 62.0911 17.9089 80 40 80C62.0911 80 80 62.0911 80 40C79.9753 17.9193 62.0807 0.0247397 40 0ZM40 77.3333C19.3815 77.3333 2.66667 60.6185 2.66667 40C2.66667 19.3815 19.3815 2.66667 40 2.66667C60.6185 2.66667 77.3333 19.3815 77.3333 40C77.3099 60.6087 60.6087 77.3099 40 77.3333Z" fill="url(#paint0_linear)"/>
<path d="M53.3339 20.0001C51.257 19.9909 49.2961 20.9545 48.0337 22.6036C46.7714 24.2527 46.3534 26.3979 46.9048 28.3998L34.3378 34.6798C32.1392 31.4883 28.1991 29.9844 24.4328 30.8992C20.6665 31.8139 17.8547 34.9571 17.3645 38.8015C16.8742 42.6465 18.8072 46.3946 22.2232 48.2253C25.6398 50.0554 29.8312 49.5886 32.7603 47.0508L39.8378 53.1843C37.6724 56.7468 38.5982 61.3751 41.968 63.8301C45.3378 66.2852 50.0266 65.7488 52.7544 62.5951C55.4823 59.4421 55.3384 54.7247 52.4237 51.7436C49.509 48.7624 44.7961 48.5124 41.5819 51.168L34.5155 45.0346C36.0467 42.6706 36.4165 39.737 35.5207 37.0665L48.1086 30.7735C49.3586 32.3913 51.2889 33.3373 53.3339 33.3334C57.0155 33.3334 60.0005 30.3484 60.0005 26.6667C60.0005 22.9851 57.0155 20.0001 53.3339 20.0001ZM26.6672 46.6667C23.3814 46.6654 20.5865 44.2696 20.0825 41.0229C19.5786 37.7755 21.5155 34.6459 24.6464 33.6479C27.7772 32.6505 31.1678 34.0827 32.6353 37.0229C33.662 39.0899 33.548 41.5417 32.3332 43.5046C31.1184 45.4675 28.9758 46.6635 26.6672 46.6667ZM46.6672 52.0001C49.1763 51.9988 51.3469 53.7462 51.8814 56.1973C52.4159 58.6485 51.1698 61.1407 48.8879 62.1837C46.606 63.2273 43.9055 62.5385 42.4016 60.5307C40.8977 58.5229 40.9966 55.7377 42.6392 53.8412C43.6516 52.6726 45.121 52.0007 46.6672 52.0001ZM53.3339 30.6667C51.8137 30.6719 50.4243 29.8067 49.7577 28.4402C49.4751 27.892 49.3293 27.2833 49.3339 26.6667C49.3339 24.4577 51.1249 22.6667 53.3339 22.6667C55.5428 22.6667 57.3339 24.4577 57.3339 26.6667C57.3339 28.8757 55.5428 30.6667 53.3339 30.6667Z" fill="url(#paint1_linear)"/>
<defs>
<linearGradient id="paint0_linear" x1="0.230668" y1="79.308" x2="76.6747" y2="3.752" gradientUnits="userSpaceOnUse">
<stop stop-color="#2E72CD"/>
<stop offset="1" stop-color="#00ABEE"/>
</linearGradient>
<linearGradient id="paint1_linear" x1="17.4122" y1="64.9757" x2="60.6545" y2="24.7386" gradientUnits="userSpaceOnUse">
<stop stop-color="#2E72CD"/>
<stop offset="1" stop-color="#00ABEE"/>
</linearGradient>
</defs>
</svg>
