<svg width="80" height="80" viewBox="0 0 80 80" fill="none" xmlns="http://www.w3.org/2000/svg">
<path fill-rule="evenodd" clip-rule="evenodd" d="M19.9258 27C19.9258 25.2741 21.3249 23.875 23.0508 23.875H63.9999C65.7258 23.875 67.1249 25.2741 67.1249 27V48.0678C67.1249 49.7937 65.7258 51.1928 63.9999 51.1928H62V48.9428H63.9999C64.4832 48.9428 64.8749 48.551 64.8749 48.0678V27C64.8749 26.5168 64.4832 26.125 63.9999 26.125H23.0508C22.5675 26.125 22.1758 26.5168 22.1758 27V29H19.9258V27ZM17.25 40.8475V53.8686H57.6992V40.8475L17.25 40.8475ZM15 40.8475V35.8475V33.0508C15 31.9463 15.8954 31.0508 17 31.0508H57.9492C59.0537 31.0508 59.9492 31.9463 59.9492 33.0508V35.8475V40.8475V54.1186C59.9492 55.2232 59.0537 56.1186 57.9492 56.1186H17C15.8954 56.1186 15 55.2232 15 54.1186V40.8475ZM57.6992 35.8475V33.3008H17.25V35.8475L57.6992 35.8475Z" fill="url(#paint0_linear)"/>
<path d="M40 0C17.9089 0 0 17.9089 0 40C0 62.0911 17.9089 80 40 80C62.0911 80 80 62.0911 80 40C79.9753 17.9193 62.0807 0.0247397 40 0ZM40 77.3333C19.3815 77.3333 2.66667 60.6185 2.66667 40C2.66667 19.3815 19.3815 2.66667 40 2.66667C60.6185 2.66667 77.3333 19.3815 77.3333 40C77.3099 60.6087 60.6087 77.3099 40 77.3333Z" fill="url(#paint1_linear)"/>
<defs>
<linearGradient id="paint0_linear" x1="15.6307" y1="54.2302" x2="47.3364" y2="7.85633" gradientUnits="userSpaceOnUse">
<stop stop-color="#2E72CD"/>
<stop offset="1" stop-color="#00ABEE"/>
</linearGradient>
<linearGradient id="paint1_linear" x1="0.968002" y1="75.3147" x2="84.968" y2="-0.685336" gradientUnits="userSpaceOnUse">
<stop stop-color="#2E72CD"/>
<stop offset="1" stop-color="#00ABEE"/>
</linearGradient>
</defs>
</svg>
