<svg width="19" height="19" viewBox="0 0 19 19" fill="none" xmlns="http://www.w3.org/2000/svg">
<path d="M9.5 19C4.26176 19 0 14.7382 0 9.5C0 4.26176 4.26176 0 9.5 0C14.7382 0 19 4.26176 19 9.5C19 14.7382 14.7382 19 9.5 19ZM9.5 0.575758C4.579 0.575758 0.575758 4.579 0.575758 9.5C0.575758 14.421 4.579 18.4242 9.5 18.4242C14.421 18.4242 18.4242 14.421 18.4242 9.5C18.4242 4.579 14.421 0.575758 9.5 0.575758Z" fill="black"/>
<path d="M9.4998 19C7.52207 19 5.62149 18.3908 4.00189 17.2382C3.91552 17.1766 3.86946 17.0712 3.88328 16.9658C3.8971 16.8605 3.96849 16.7706 4.06868 16.7338C6.45577 15.85 6.84095 15.1326 6.84095 13.7577C6.84095 13.3944 6.75919 13.2752 6.6118 13.0587C6.41662 12.7743 6.14946 12.3845 5.96177 11.3666C5.93413 11.2203 5.91052 11.2088 5.77983 11.1455C5.43092 10.9774 5.11022 10.7356 5.02616 9.6324C5.02616 9.0981 5.2104 8.80274 5.36298 8.64901C5.32958 8.45901 5.27489 8.1314 5.22365 7.77443C4.96283 6.17555 4.95131 4.2174 7.20022 3.30713C9.1601 2.51258 10.7244 2.94671 11.2156 3.46431C11.5633 3.47525 12.4603 3.56622 13.0845 4.29225C14.0448 5.40922 13.7391 7.9558 13.6343 8.64613C13.7875 8.7964 13.9734 9.08774 13.9734 9.61052C13.8894 10.7356 13.5687 10.9779 13.2192 11.1455C13.0879 11.2088 13.0643 11.2198 13.0373 11.3666C12.8496 12.3845 12.583 12.7743 12.3878 13.0587C12.2398 13.2746 12.1586 13.3944 12.1586 13.7577C12.1586 15.1326 12.5438 15.85 14.9309 16.7338C15.0311 16.7706 15.1025 16.8599 15.1163 16.9658C15.1301 17.0718 15.0841 17.1766 14.9977 17.2382C13.3781 18.3908 11.4775 19 9.4998 19ZM4.78837 17.0718C6.20589 17.9584 7.82377 18.4242 9.4998 18.4242C11.1758 18.4242 12.7937 17.9584 14.2112 17.0718C12.211 16.2507 11.5829 15.4228 11.5829 13.7583C11.5829 13.2165 11.7429 12.9822 11.9128 12.734C12.0878 12.4784 12.3055 12.1606 12.4719 11.2624C12.5519 10.8283 12.8035 10.7073 12.9699 10.6273C13.1489 10.5415 13.3332 10.4529 13.3983 9.58922C13.3977 9.14934 13.2002 9.02958 13.1921 9.02498C13.0862 8.96395 13.0177 8.83555 13.0401 8.7158C13.1829 7.95061 13.4178 5.5641 12.648 4.66764C12.1224 4.05619 11.2939 4.03949 11.1361 4.04583C11.1096 4.04352 11.0837 4.04295 11.0589 4.03661C10.9841 4.01761 10.8574 3.95255 10.8189 3.88577C10.6623 3.61746 9.29828 3.07798 7.41613 3.8397C5.55586 4.5928 5.55183 6.20722 5.79307 7.68692C5.87252 8.23792 5.95946 8.71407 5.96004 8.71637C5.98365 8.84592 5.91628 8.97489 5.7971 9.02958C5.79883 9.02958 5.60192 9.14992 5.60192 9.60995C5.6664 10.4511 5.85122 10.5404 6.02971 10.6262C6.1961 10.7062 6.44828 10.8271 6.52831 11.2612C6.69413 12.1594 6.91177 12.4772 7.0868 12.7329C7.25722 12.981 7.41728 13.2153 7.41728 13.7571C7.41728 15.4234 6.78913 16.2513 4.78837 17.0718Z" fill="black"/>
</svg>
