<svg width="130" height="82" viewBox="0 0 130 82" fill="none" xmlns="http://www.w3.org/2000/svg">
<path opacity="0.2" d="M17.7891 64.0952V71.5956H111.868V32.0476H107.079L74.2364 56.2537L51.6575 38.8662L17.7891 64.0952Z" fill="url(#paint0_linear)"/>
<path fill-rule="evenodd" clip-rule="evenodd" d="M8.94737 4.47368H121.053C123.523 4.47368 125.526 6.47662 125.526 8.94737V13.9366H4.47368V8.94737C4.47368 6.47662 6.47662 4.47368 8.94737 4.47368ZM0 18.4103V13.9366V8.94737C0 4.00588 4.00587 0 8.94737 0H121.053C125.994 0 130 4.00587 130 8.94737V13.9366V18.4103V77.3498V81.8235H125.526H4.47368H0V77.3498V18.4103ZM125.526 18.4103V77.3498H4.47368V18.4103H125.526ZM10.9471 9.54605C10.9471 10.6758 10.0281 11.5916 8.89443 11.5916C7.76079 11.5916 6.8418 10.6758 6.8418 9.54605C6.8418 8.4163 7.76079 7.50046 8.89443 7.50046C10.0281 7.50046 10.9471 8.4163 10.9471 9.54605ZM17.1054 11.5916C18.239 11.5916 19.158 10.6758 19.158 9.54605C19.158 8.4163 18.239 7.50046 17.1054 7.50046C15.9717 7.50046 15.0527 8.4163 15.0527 9.54605C15.0527 10.6758 15.9717 11.5916 17.1054 11.5916ZM27.3689 9.54605C27.3689 10.6758 26.4499 11.5916 25.3163 11.5916C24.1827 11.5916 23.2637 10.6758 23.2637 9.54605C23.2637 8.4163 24.1827 7.50046 25.3163 7.50046C26.4499 7.50046 27.3689 8.4163 27.3689 9.54605ZM106.737 29.8107C106.246 29.8107 105.769 29.9722 105.379 30.2702L74.8174 53.6241L53.348 36.4068C52.5412 35.7598 51.3959 35.7502 50.5784 36.3838L17.1034 62.3271C16.1269 63.0838 15.9488 64.4889 16.7056 65.4653C17.4624 66.4418 18.8674 66.6199 19.8439 65.8631L51.925 41.0001L73.3847 58.2097C74.1872 58.8533 75.325 58.8666 76.1423 58.242L107.494 34.2844H110.842C112.077 34.2844 113.079 33.2829 113.079 32.0475C113.079 30.8122 112.077 29.8107 110.842 29.8107H106.737Z" fill="url(#paint1_linear)"/>
<defs>
<linearGradient id="paint0_linear" x1="18.9274" y1="69.2794" x2="50.8227" y2="0.631455" gradientUnits="userSpaceOnUse">
<stop stop-color="#2E72CD"/>
<stop offset="1" stop-color="#00ABEE"/>
</linearGradient>
<linearGradient id="paint1_linear" x1="1.573" y1="77.0314" x2="82.5292" y2="-39.3409" gradientUnits="userSpaceOnUse">
<stop stop-color="#2E72CD"/>
<stop offset="1" stop-color="#00ABEE"/>
</linearGradient>
</defs>
</svg>
