<svg width="80" height="80" viewBox="0 0 80 80" fill="none" xmlns="http://www.w3.org/2000/svg">
<path d="M40 0C17.9084 0 0 17.9084 0 40C0 62.0916 17.9084 80 40 80C62.0916 80 80 62.0916 80 40C79.9752 17.9192 62.0808 0.0247714 40 0ZM40 77.3336C19.3814 77.3336 2.66641 60.6186 2.66641 40C2.66641 19.3814 19.3814 2.66641 40 2.66641C60.6186 2.66641 77.3336 19.3814 77.3336 40C77.3094 60.6091 60.6091 77.3094 40 77.3336Z" fill="url(#paint0_linear)"/>
<path d="M62.9041 26.3441C55.3621 13.6942 38.9934 9.55361 26.3435 17.0955C13.6936 24.6375 9.55294 41.0062 17.0949 53.6561C21.9056 61.7246 30.606 66.6668 40.0001 66.6668V64.0004C26.7455 64.0048 15.996 53.2636 15.9916 40.009C15.9865 26.7538 26.7277 16.005 39.9823 15.9999C48.174 15.9973 55.8017 20.1723 60.2135 27.0746L54.0105 28.7616L65.3336 40.0001L69.4069 24.5746L62.9041 26.3441Z" fill="url(#paint1_linear)"/>
<path d="M61.1357 51.3802L63.4839 52.6454C64.3039 51.1236 64.974 49.5262 65.484 47.8747L62.9357 47.0878C62.4778 48.574 61.875 50.0114 61.1357 51.3802Z" fill="url(#paint2_linear)"/>
<path d="M47.0948 62.9331L47.8824 65.4814C49.5338 64.9714 51.1312 64.3013 52.6518 63.4813L51.3853 61.1356C50.0172 61.873 48.5798 62.4752 47.0948 62.9331Z" fill="url(#paint3_linear)"/>
<path d="M55.2465 58.5335L56.9423 60.592C58.2756 59.4925 59.4995 58.2673 60.5971 56.9335L58.5334 55.2427C57.5464 56.4425 56.4456 57.5445 55.2465 58.5335Z" fill="url(#paint4_linear)"/>
<defs>
<linearGradient id="paint0_linear" x1="-16.8358" y1="85.8616" x2="93.5445" y2="-10.6112" gradientUnits="userSpaceOnUse">
<stop stop-color="#2E72CD"/>
<stop offset="1" stop-color="#00ABEE"/>
</linearGradient>
<linearGradient id="paint1_linear" x1="1.52733" y1="70.5748" x2="75.5233" y2="2.57883" gradientUnits="userSpaceOnUse">
<stop stop-color="#2E72CD"/>
<stop offset="1" stop-color="#00ABEE"/>
</linearGradient>
<linearGradient id="paint2_linear" x1="60.2206" y1="53.0527" x2="67.4314" y2="48.1218" gradientUnits="userSpaceOnUse">
<stop stop-color="#2E72CD"/>
<stop offset="1" stop-color="#00ABEE"/>
</linearGradient>
<linearGradient id="paint3_linear" x1="45.9253" y1="65.7998" x2="51.9387" y2="59.0793" gradientUnits="userSpaceOnUse">
<stop stop-color="#2E72CD"/>
<stop offset="1" stop-color="#00ABEE"/>
</linearGradient>
<linearGradient id="paint4_linear" x1="54.1204" y1="60.984" x2="61.5014" y2="54.5314" gradientUnits="userSpaceOnUse">
<stop stop-color="#2E72CD"/>
<stop offset="1" stop-color="#00ABEE"/>
</linearGradient>
</defs>
</svg>
