<svg width="80" height="80" viewBox="0 0 80 80" fill="none" xmlns="http://www.w3.org/2000/svg">
<path d="M41.3333 38.6667V24H22.6666V41.3333H38.6666V58.6667H40C49.5683 58.6556 57.3222 50.9017 57.3333 41.3333V38.6667H41.3333ZM25.3333 38.6667V26.6667H38.6666V38.6667H25.3333ZM41.3333 55.9401V41.3333H54.6666C54.6575 48.9134 48.8815 55.2415 41.3333 55.9401Z" fill="url(#paint0_linear)"/>
<path d="M40 0C17.9089 0 0 17.9089 0 40C0 62.0911 17.9089 80 40 80C62.0911 80 80 62.0911 80 40C79.9753 17.9193 62.0807 0.0247397 40 0ZM40 77.3333C19.3815 77.3333 2.66667 60.6185 2.66667 40C2.66667 19.3815 19.3815 2.66667 40 2.66667C60.6185 2.66667 77.3333 19.3815 77.3333 40C77.3099 60.6087 60.6087 77.3099 40 77.3333Z" fill="url(#paint1_linear)"/>
<path d="M61.3802 17.8014L40.112 13.3053L18.6322 17.8066C15.5502 18.4628 13.3438 21.1796 13.3334 24.3307V40C13.3334 54.7278 25.2722 66.6666 40 66.6666C54.7279 66.6666 66.6667 54.7278 66.6667 40V24.3229C66.6543 21.177 64.4551 18.4635 61.3802 17.8014ZM64 40C64 53.2545 53.2546 64 40 64C26.7455 64 16 53.2545 16 40V24.3307C16.0059 22.4407 17.3295 20.8105 19.1784 20.4173L40.112 16.028L60.8295 20.4108C62.6739 20.8079 63.9935 22.4355 64 24.3229V40Z" fill="url(#paint2_linear)"/>
<defs>
<linearGradient id="paint0_linear" x1="24.9656" y1="56.7531" x2="55.01" y2="25.9384" gradientUnits="userSpaceOnUse">
<stop stop-color="#2E72CD"/>
<stop offset="1" stop-color="#00ABEE"/>
</linearGradient>
<linearGradient id="paint1_linear" x1="5.30533" y1="75.584" x2="74.6387" y2="4.47334" gradientUnits="userSpaceOnUse">
<stop stop-color="#2E72CD"/>
<stop offset="1" stop-color="#00ABEE"/>
</linearGradient>
<linearGradient id="paint2_linear" x1="16.8703" y1="63.7211" x2="63.1174" y2="16.3134" gradientUnits="userSpaceOnUse">
<stop stop-color="#2E72CD"/>
<stop offset="1" stop-color="#00ABEE"/>
</linearGradient>
</defs>
</svg>
