<svg width="40" height="40" viewBox="0 0 40 40" fill="none" xmlns="http://www.w3.org/2000/svg">
<mask id="mask0" mask-type="alpha" maskUnits="userSpaceOnUse" x="3" y="3" width="34" height="34">
<rect x="3.33398" y="3.33337" width="33.3333" height="33.3333" rx="6.66667" fill="#C4C4C4"/>
</mask>
<g mask="url(#mask0)">
<path fill-rule="evenodd" clip-rule="evenodd" d="M3.33398 3.33337V36.6667H36.6673V3.33337H3.33398ZM28.3228 21.7749C29.088 22.5214 29.8972 23.2243 30.584 24.0496C30.8875 24.4143 31.1745 24.7904 31.3932 25.213C31.7038 25.8184 31.4223 26.4817 30.8815 26.5183L27.5207 26.5168C26.6532 26.5881 25.962 26.2384 25.379 25.6449C24.9154 25.1723 24.482 24.6666 24.0345 24.178C23.8524 23.9768 23.6598 23.7887 23.4309 23.6386C22.9718 23.3411 22.5735 23.4315 22.3111 23.9096C22.0442 24.3967 21.9815 24.9375 21.9569 25.48C21.9204 26.2717 21.6815 26.4788 20.8868 26.5169C19.1866 26.5956 17.5741 26.3373 16.0766 25.4814C14.7541 24.7263 13.7307 23.6588 12.8397 22.4517C11.1033 20.0983 9.7734 17.5146 8.57933 14.8566C8.30944 14.2575 8.50658 13.9365 9.16534 13.9249C10.2635 13.9033 11.3612 13.9059 12.4579 13.9235C12.9039 13.931 13.1999 14.1859 13.3705 14.6073C13.964 16.0656 14.69 17.4534 15.6012 18.7411C15.8449 19.0838 16.0927 19.4249 16.4439 19.6669C16.8333 19.9352 17.1308 19.8475 17.3144 19.4115C17.4312 19.1346 17.4823 18.8401 17.507 18.5441C17.5943 17.5307 17.6048 16.5162 17.4543 15.5058C17.361 14.8742 17.0039 14.4658 16.3741 14.3464C16.0531 14.2852 16.1012 14.1672 16.2558 13.9832C16.5272 13.6671 16.7825 13.4699 17.2883 13.4699H21.0866C21.6856 13.5868 21.82 13.8566 21.9014 14.4587L21.9044 18.6799C21.8973 18.9132 22.0212 19.6041 22.4396 19.7571C22.7748 19.868 22.998 19.5981 23.1992 19.3853C24.1089 18.42 24.7579 17.2786 25.3379 16.0976C25.5947 15.5784 25.8165 15.0391 26.0322 14.4993C26.1912 14.0999 26.439 13.9032 26.8896 13.9103L30.5464 13.9148C30.6543 13.9148 30.7652 13.9148 30.8716 13.9323C31.4867 14.0386 31.6558 14.3041 31.4647 14.9061C31.1661 15.8493 30.5812 16.6369 30.0112 17.4256C29.4001 18.2699 28.75 19.0847 28.1434 19.9335C27.5894 20.7107 27.6331 21.1015 28.3228 21.7749Z" fill="url(#paint0_linear)"/>
</g>
<defs>
<linearGradient id="paint0_linear" x1="3.73732" y1="34.7145" x2="38.7373" y2="3.04782" gradientUnits="userSpaceOnUse">
<stop stop-color="#2E72CD"/>
<stop offset="1" stop-color="#00ABEE"/>
</linearGradient>
</defs>
</svg>
