<svg width="40" height="40" viewBox="0 0 40 40" fill="none" xmlns="http://www.w3.org/2000/svg">
<path d="M30.4173 3.33337H9.58396C6.13191 3.33337 3.33398 6.1313 3.33398 9.58335V30.4167C3.33398 33.8688 6.13191 36.6667 9.58396 36.6667H30.4173C33.8695 36.6667 36.6673 33.8688 36.6673 30.4167V9.58335C36.6674 6.1313 33.8695 3.33337 30.4173 3.33337ZM30.2403 23.7313C30.1278 25.1188 29.0736 26.8896 27.6007 27.1459C22.882 27.5125 17.2903 27.4667 12.4028 27.1459C10.8778 26.9542 9.87573 25.1167 9.76324 23.7313C9.52576 20.8188 9.52576 19.1604 9.76324 16.2479C9.87573 14.8625 10.9028 13.0354 12.4028 12.8688C17.2341 12.4625 22.857 12.55 27.6007 12.8688C29.2966 12.9312 30.1278 14.6792 30.2403 16.0667C30.4736 18.9792 30.4736 20.8188 30.2403 23.7313Z" fill="url(#paint0_linear)"/>
<path d="M17.916 24.1667L24.1661 20L17.916 15.8334V24.1667Z" fill="url(#paint1_linear)"/>
<defs>
<linearGradient id="paint0_linear" x1="3.73732" y1="34.7145" x2="38.7373" y2="3.04782" gradientUnits="userSpaceOnUse">
<stop stop-color="#2E72CD"/>
<stop offset="1" stop-color="#00ABEE"/>
</linearGradient>
<linearGradient id="paint1_linear" x1="17.9916" y1="23.6787" x2="26.1634" y2="18.1335" gradientUnits="userSpaceOnUse">
<stop stop-color="#2E72CD"/>
<stop offset="1" stop-color="#00ABEE"/>
</linearGradient>
</defs>
</svg>
